<?xml version="1.0" encoding="UTF-8"?>
<svg version="1.1" xmlns="http://www.w3.org/2000/svg" width="256" height="256">
<path d="M0 0 C3 0.125 3 0.125 4 1.125 C4.08651611 2.54070123 4.10704904 3.960595 4.09765625 5.37890625 C4.09282227 6.65991211 4.09282227 6.65991211 4.08789062 7.96679688 C4.07532227 9.31354492 4.07532227 9.31354492 4.0625 10.6875 C4.05798828 11.58919922 4.05347656 12.49089844 4.04882812 13.41992188 C4.03700225 15.65501314 4.0205222 17.88997437 4 20.125 C4.60803467 20.11194824 5.21606934 20.09889648 5.8425293 20.08544922 C42.26699509 19.64504209 82.52747247 34.91789619 109.4609375 59.53125 C112.00707433 62.16785869 112.25678916 64.23661587 112.4375 67.8125 C112.49808594 68.64136719 112.55867187 69.47023438 112.62109375 70.32421875 C110.88540091 78.15121098 102.84311356 82.75248532 96.5625 86.875 C95.64944092 87.47699219 94.73638184 88.07898438 93.7956543 88.69921875 C69.11919297 104.56460481 38.72216323 116.56452105 8.9375 116.1875 C7.52791016 116.17396484 7.52791016 116.17396484 6.08984375 116.16015625 C5.40019531 116.14855469 4.71054688 116.13695312 4 116.125 C4.00523682 116.69532959 4.01047363 117.26565918 4.01586914 117.85327148 C4.03658221 120.42300323 4.0496419 122.99271747 4.0625 125.5625 C4.07087891 126.46033203 4.07925781 127.35816406 4.08789062 128.28320312 C4.09111328 129.13720703 4.09433594 129.99121094 4.09765625 130.87109375 C4.10289307 131.66185303 4.10812988 132.4526123 4.11352539 133.26733398 C4 135.125 4 135.125 3 136.125 C0 136.25 0 136.25 -3 136.125 C-4 135.125 -4 135.125 -4.11352539 133.26733398 C-4.10567017 132.08119507 -4.10567017 132.08119507 -4.09765625 130.87109375 C-4.09282227 129.59008789 -4.09282227 129.59008789 -4.08789062 128.28320312 C-4.07532227 126.93645508 -4.07532227 126.93645508 -4.0625 125.5625 C-4.05798828 124.66080078 -4.05347656 123.75910156 -4.04882812 122.83007812 C-4.03700225 120.59498686 -4.0205222 118.36002563 -4 116.125 C-4.6384082 116.15609863 -5.27681641 116.18719727 -5.93457031 116.21923828 C-38.75545865 117.54120995 -72.76978809 103.36896312 -99.25 84.9375 C-99.95334473 84.45055664 -100.65668945 83.96361328 -101.38134766 83.46191406 C-106.14091395 80.04520475 -111.01213968 76.47741958 -112.734375 70.6328125 C-112.7749914 64.4388119 -111.25993856 61.60445525 -107.11767578 57.13232422 C-103.58455714 53.78331552 -99.67860801 51.201647 -95.5625 48.625 C-94.68287598 48.06603027 -93.80325195 47.50706055 -92.89697266 46.93115234 C-85.17842501 42.09885256 -77.33195228 37.7977035 -69 34.125 C-68.3076123 33.81868652 -67.61522461 33.51237305 -66.90185547 33.19677734 C-47.21818618 24.65901365 -25.52057051 19.47362361 -4 20.125 C-4.00523682 19.55467041 -4.01047363 18.98434082 -4.01586914 18.39672852 C-4.03658221 15.82699677 -4.0496419 13.25728253 -4.0625 10.6875 C-4.07087891 9.78966797 -4.07925781 8.89183594 -4.08789062 7.96679688 C-4.09111328 7.11279297 -4.09433594 6.25878906 -4.09765625 5.37890625 C-4.10289307 4.58814697 -4.10812988 3.7973877 -4.11352539 2.98266602 C-3.91992754 -0.18526101 -3.22025557 0.13417732 0 0 Z M-4 21.125 C-4 29.045 -4 36.965 -4 45.125 C-6.97 46.115 -9.94 47.105 -13 48.125 C-15.29930678 49.50918366 -15.29930678 49.50918366 -16.875 51.25 C-17.67550781 52.02730469 -17.67550781 52.02730469 -18.4921875 52.8203125 C-20.72048575 56.01266616 -20.72048575 56.01266616 -23 64.125 C-30.92 64.125 -38.84 64.125 -47 64.125 C-47 66.765 -47 69.405 -47 72.125 C-39.08 72.125 -31.16 72.125 -23 72.125 C-22.01 75.095 -21.02 78.065 -20 81.125 C-18.61581634 83.42430678 -18.61581634 83.42430678 -16.875 85 C-16.35679688 85.53367187 -15.83859375 86.06734375 -15.3046875 86.6171875 C-12.11233384 88.84548575 -12.11233384 88.84548575 -4 91.125 C-4 99.045 -4 106.965 -4 115.125 C-1.36 115.125 1.28 115.125 4 115.125 C4 107.205 4 99.285 4 91.125 C6.97 90.135 9.94 89.145 13 88.125 C15.29930678 86.74081634 15.29930678 86.74081634 16.875 85 C17.40867187 84.48179687 17.94234375 83.96359375 18.4921875 83.4296875 C20.72048575 80.23733384 20.72048575 80.23733384 23 72.125 C30.92 72.125 38.84 72.125 47 72.125 C47 69.485 47 66.845 47 64.125 C39.08 64.125 31.16 64.125 23 64.125 C22.01 61.155 21.02 58.185 20 55.125 C18.61581634 52.82569322 18.61581634 52.82569322 16.875 51.25 C16.35679687 50.71632813 15.83859375 50.18265625 15.3046875 49.6328125 C12.11233384 47.40451425 12.11233384 47.40451425 4 45.125 C4 37.205 4 29.285 4 21.125 C1.36 21.125 -1.28 21.125 -4 21.125 Z M-78 49.125 C-79.0621875 49.69992188 -80.124375 50.27484375 -81.21875 50.8671875 C-86.58265048 53.86710091 -91.69984992 57.16559177 -96.6875 60.75 C-97.68136719 61.46414062 -98.67523438 62.17828125 -99.69921875 62.9140625 C-102.25172182 65.36689228 -102.73794116 66.6511968 -103 70.125 C-85.88428583 84.65210729 -66.1600043 94.0601051 -45 101.125 C-44.34918457 101.34704102 -43.69836914 101.56908203 -43.02783203 101.79785156 C-39.68814151 102.86165088 -37.32105121 103.45342048 -34 102.125 C-34.53109375 101.44695312 -35.0621875 100.76890625 -35.609375 100.0703125 C-42.61387575 90.84175495 -45.48109494 83.46007278 -48 72.125 C-54.27 71.795 -60.54 71.465 -67 71.125 C-67 69.145 -67 67.165 -67 65.125 C-60.73 64.795 -54.46 64.465 -48 64.125 C-47.46375 61.85625 -46.9275 59.5875 -46.375 57.25 C-44.64019877 50.42541322 -42.04207408 44.92872668 -38 39.125 C-37.20768844 37.91708943 -36.41592218 36.70882077 -35.625 35.5 C-35.08875 34.71625 -34.5525 33.9325 -34 33.125 C-48.74824099 33.125 -65.27757911 42.04743703 -78 49.125 Z M34 33.125 C34.37511719 33.65867188 34.75023437 34.19234375 35.13671875 34.7421875 C41.64279921 44.21451623 45.51378015 52.87158383 48 64.125 C54.27 64.455 60.54 64.785 67 65.125 C67 67.105 67 69.085 67 71.125 C60.73 71.455 54.46 71.785 48 72.125 C47.46375 74.39375 46.9275 76.6625 46.375 79 C44.64019877 85.82458678 42.04207408 91.32127332 38 97.125 C37.20768844 98.33291057 36.41592218 99.54117923 35.625 100.75 C34.820625 101.925625 34.820625 101.925625 34 103.125 C40.21149541 102.56226131 45.63623012 101.15768595 51.5 99.0625 C52.80614258 98.5994043 52.80614258 98.5994043 54.13867188 98.12695312 C62.44538616 95.0991588 70.25077119 91.36218906 78 87.125 C79.06734375 86.54878906 80.1346875 85.97257812 81.234375 85.37890625 C86.58990385 82.37509279 91.70410917 79.08134729 96.6875 75.5 C98.17830078 74.42878906 98.17830078 74.42878906 99.69921875 73.3359375 C102.25172182 70.88310772 102.73794116 69.5988032 103 66.125 C86.11101087 51.0137992 57.38333873 33.125 34 33.125 Z " fill="#2A8CFF" transform="translate(128,59.875)"/>
<path d="M0 0 C0.85078125 -0.03287109 1.7015625 -0.06574219 2.578125 -0.09960938 C3.40570313 -0.10669922 4.23328125 -0.11378906 5.0859375 -0.12109375 C6.21201416 -0.14127563 6.21201416 -0.14127563 7.36083984 -0.16186523 C11.03915403 0.81185283 12.39511321 2.37517685 14.625 5.4375 C15.34243405 8.81580219 15.30248715 12.11536482 15.25390625 15.55859375 C15.25631821 16.53611099 15.25873016 17.51362823 15.26121521 18.52076721 C15.26023746 20.58428002 15.24686115 22.64781929 15.22192383 24.71118164 C15.18765123 27.86110083 15.20126023 31.00820783 15.22070312 34.15820312 C15.21380328 36.16667856 15.20412965 38.17514677 15.19140625 40.18359375 C15.19636612 41.12126083 15.20132599 42.05892792 15.20643616 43.02500916 C15.10611985 48.62693336 14.50975407 52.092923 10.625 56.4375 C6.13666979 60.35391001 1.132921 59.90503997 -4.53125 59.90625 C-5.51113892 59.91386353 -6.49102783 59.92147705 -7.50061035 59.92932129 C-9.56825212 59.94010612 -11.63594829 59.94298198 -13.70361328 59.93847656 C-16.86452994 59.93750322 -20.02302673 59.97916497 -23.18359375 60.0234375 C-25.19530745 60.02864401 -27.20702957 60.0313327 -29.21875 60.03125 C-30.63299255 60.0558429 -30.63299255 60.0558429 -32.07580566 60.08093262 C-36.59628638 60.03337028 -38.72842657 59.90944247 -42.46826172 57.1796875 C-44.37672843 54.43501425 -45.01403782 53.24340843 -45.0390625 49.96875 C-45.04550781 49.15019531 -45.05195313 48.33164063 -45.05859375 47.48828125 C-45.03925781 46.64652344 -45.01992187 45.80476563 -45 44.9375 C-45.01933594 44.09574219 -45.03867188 43.25398438 -45.05859375 42.38671875 C-45.02366219 37.9504101 -44.81690341 36.00712965 -42.0234375 32.40625 C-38.4078377 29.7185475 -35.8682385 29.31329855 -31.48828125 29.33984375 C-30.55048828 29.34306641 -29.61269531 29.34628906 -28.64648438 29.34960938 C-27.67001953 29.35798828 -26.69355469 29.36636719 -25.6875 29.375 C-24.69943359 29.37951172 -23.71136719 29.38402344 -22.69335938 29.38867188 C-20.25384526 29.40045697 -17.81445311 29.41690989 -15.375 29.4375 C-15.39071045 28.83276855 -15.4064209 28.22803711 -15.42260742 27.60498047 C-15.4853188 24.84091704 -15.52410411 22.07700379 -15.5625 19.3125 C-15.58763672 18.36117187 -15.61277344 17.40984375 -15.63867188 16.4296875 C-15.69503407 11.0189166 -15.54150796 7.05809204 -12.375 2.4375 C-8.23590056 -0.32189963 -4.86605794 0.03287877 0 0 Z " fill="#4B63FF" transform="translate(225.375,180.5625)"/>
<path d="M0 0 C0.81855469 -0.00644531 1.63710938 -0.01289063 2.48046875 -0.01953125 C3.32222656 -0.00019531 4.16398437 0.01914063 5.03125 0.0390625 C5.87300781 0.01972656 6.71476562 0.00039062 7.58203125 -0.01953125 C12.0183399 0.01540031 13.96162035 0.22215909 17.5625 3.015625 C20.2502025 6.6312248 20.65545145 9.170824 20.62890625 13.55078125 C20.62568359 14.48857422 20.62246094 15.42636719 20.61914062 16.39257812 C20.61076172 17.36904297 20.60238281 18.34550781 20.59375 19.3515625 C20.58923828 20.33962891 20.58472656 21.32769531 20.58007812 22.34570312 C20.56829303 24.78521724 20.55184011 27.22460939 20.53125 29.6640625 C21.43834717 29.64049683 21.43834717 29.64049683 22.36376953 29.61645508 C25.12783296 29.5537437 27.89174621 29.51495839 30.65625 29.4765625 C31.60757813 29.45142578 32.55890625 29.42628906 33.5390625 29.40039062 C38.9498334 29.34402843 42.91065796 29.49755454 47.53125 32.6640625 C50.29064963 36.80316194 49.93587123 40.17300456 49.96875 45.0390625 C50.00162109 45.88984375 50.03449219 46.740625 50.06835938 47.6171875 C50.07544922 48.44476563 50.08253906 49.27234375 50.08984375 50.125 C50.10329834 50.87571777 50.11675293 51.62643555 50.13061523 52.39990234 C49.15689717 56.07821653 47.59357315 57.43417571 44.53125 59.6640625 C41.15294781 60.38149655 37.85338518 60.34154965 34.41015625 60.29296875 C33.43263901 60.29538071 32.45512177 60.29779266 31.44798279 60.30027771 C29.38446998 60.29929996 27.32093071 60.28592365 25.25756836 60.26098633 C22.10764917 60.22671373 18.96054217 60.24032273 15.81054688 60.25976562 C13.80207144 60.25286578 11.79360323 60.24319215 9.78515625 60.23046875 C8.84748917 60.23542862 7.90982208 60.24038849 6.94374084 60.24549866 C1.34181664 60.14518235 -2.124173 59.54881657 -6.46875 55.6640625 C-10.38516001 51.17573229 -9.93628997 46.1719835 -9.9375 40.5078125 C-9.94511353 39.52792358 -9.95272705 38.54803467 -9.96057129 37.53845215 C-9.97135612 35.47081038 -9.97423198 33.40311421 -9.96972656 31.33544922 C-9.96875322 28.17453256 -10.01041497 25.01603577 -10.0546875 21.85546875 C-10.05989401 19.84375505 -10.0625827 17.83203293 -10.0625 15.8203125 C-10.07889526 14.87748413 -10.09529053 13.93465576 -10.11218262 12.96325684 C-10.06462028 8.44277612 -9.94069247 6.31063593 -7.2109375 2.57080078 C-4.46626425 0.66233407 -3.27465843 0.02502468 0 0 Z " fill="#09B4FF" transform="translate(25.46875,180.3359375)"/>
<path d="M0 0 C0.97751724 -0.00241196 1.95503448 -0.00482391 2.96217346 -0.00730896 C5.02568627 -0.00633121 7.08922554 0.0070451 9.15258789 0.03198242 C12.30250708 0.06625502 15.44961408 0.05264602 18.59960938 0.03320312 C20.60808481 0.04010297 22.61655302 0.0497766 24.625 0.0625 C25.56266708 0.05754013 26.50033417 0.05258026 27.46641541 0.04747009 C33.06833961 0.1477864 36.53432925 0.74415218 40.87890625 4.62890625 C44.79531626 9.11723646 44.34644622 14.12098525 44.34765625 19.78515625 C44.35907654 21.25498962 44.35907654 21.25498962 44.37072754 22.7545166 C44.38151237 24.82215837 44.38438823 26.88985454 44.37988281 28.95751953 C44.37890947 32.11843619 44.42057122 35.27693298 44.46484375 38.4375 C44.47005026 40.4492137 44.47273895 42.46093582 44.47265625 44.47265625 C44.49724915 45.8868988 44.49724915 45.8868988 44.52233887 47.32971191 C44.47477653 51.85019263 44.35084872 53.98233282 41.62109375 57.72216797 C38.8764205 59.63063468 37.68481468 60.26794407 34.41015625 60.29296875 C33.18232422 60.30263672 33.18232422 60.30263672 31.9296875 60.3125 C31.08792969 60.29316406 30.24617188 60.27382812 29.37890625 60.25390625 C28.53714844 60.27324219 27.69539063 60.29257813 26.828125 60.3125 C22.39181635 60.27756844 20.4485359 60.07080966 16.84765625 57.27734375 C14.15995375 53.66174395 13.7547048 51.12214475 13.78125 46.7421875 C13.78447266 45.80439453 13.78769531 44.86660156 13.79101562 43.90039062 C13.79939453 42.92392578 13.80777344 41.94746094 13.81640625 40.94140625 C13.82091797 39.95333984 13.82542969 38.96527344 13.83007812 37.94726562 C13.84186322 35.50775151 13.85831614 33.06835936 13.87890625 30.62890625 C12.97180908 30.65247192 12.97180908 30.65247192 12.04638672 30.67651367 C9.28232329 30.73922505 6.51841004 30.77801036 3.75390625 30.81640625 C2.32691406 30.85411133 2.32691406 30.85411133 0.87109375 30.89257812 C-4.53967715 30.94894032 -8.50050171 30.79541421 -13.12109375 27.62890625 C-15.88049338 23.48980681 -15.52571498 20.11996419 -15.55859375 15.25390625 C-15.59146484 14.403125 -15.62433594 13.55234375 -15.65820312 12.67578125 C-15.66529297 11.84820312 -15.67238281 11.020625 -15.6796875 10.16796875 C-15.69314209 9.41725098 -15.70659668 8.6665332 -15.72045898 7.89306641 C-13.57336213 -0.21779969 -6.98039816 -0.09848721 0 0 Z " fill="#4B63FF" transform="translate(196.12109375,15.37109375)"/>
<path d="M0 0 C0.97988892 -0.00761353 1.95977783 -0.01522705 2.96936035 -0.02307129 C5.03700212 -0.03385612 7.10469829 -0.03673198 9.17236328 -0.03222656 C12.33327994 -0.03125322 15.49177673 -0.07291497 18.65234375 -0.1171875 C20.66405745 -0.12239401 22.67577957 -0.1250827 24.6875 -0.125 C25.63032837 -0.14139526 26.57315674 -0.15779053 27.54455566 -0.17468262 C32.06503638 -0.12712028 34.19717657 -0.00319247 37.93701172 2.7265625 C39.84547843 5.47123575 40.48278782 6.66284157 40.5078125 9.9375 C40.51748047 11.16533203 40.51748047 11.16533203 40.52734375 12.41796875 C40.50800781 13.25972656 40.48867187 14.10148437 40.46875 14.96875 C40.48808594 15.81050781 40.50742188 16.65226562 40.52734375 17.51953125 C40.49241219 21.9558399 40.28565341 23.89912035 37.4921875 27.5 C33.8765877 30.1877025 31.3369885 30.59295145 26.95703125 30.56640625 C26.01923828 30.56318359 25.08144531 30.55996094 24.11523438 30.55664062 C23.13876953 30.54826172 22.16230469 30.53988281 21.15625 30.53125 C20.16818359 30.52673828 19.18011719 30.52222656 18.16210938 30.51757812 C15.72259526 30.50579303 13.28320311 30.48934011 10.84375 30.46875 C10.85946045 31.07348145 10.8751709 31.67821289 10.89135742 32.30126953 C10.9540688 35.06533296 10.99285411 37.82924621 11.03125 40.59375 C11.05638672 41.54507813 11.08152344 42.49640625 11.10742188 43.4765625 C11.16378407 48.8873334 11.01025796 52.84815796 7.84375 57.46875 C3.70465056 60.22814963 0.33480794 59.87337123 -4.53125 59.90625 C-5.38203125 59.93912109 -6.2328125 59.97199219 -7.109375 60.00585938 C-7.93695313 60.01294922 -8.76453125 60.02003906 -9.6171875 60.02734375 C-10.36790527 60.04079834 -11.11862305 60.05425293 -11.89208984 60.06811523 C-15.57040403 59.09439717 -16.92636321 57.53107315 -19.15625 54.46875 C-19.87368405 51.09044781 -19.83373715 47.79088518 -19.78515625 44.34765625 C-19.78756821 43.37013901 -19.78998016 42.39262177 -19.79246521 41.38548279 C-19.79148746 39.32196998 -19.77811115 37.25843071 -19.75317383 35.19506836 C-19.71890123 32.04514917 -19.73251023 28.89804217 -19.75195312 25.74804688 C-19.74505328 23.73957144 -19.73537965 21.73110323 -19.72265625 19.72265625 C-19.72761612 18.78498917 -19.73257599 17.84732208 -19.73768616 16.88124084 C-19.63736985 11.27931664 -19.04100407 7.813327 -15.15625 3.46875 C-10.66791979 -0.44766001 -5.664171 0.00121003 0 0 Z " fill="#09B4FF" transform="translate(35.15625,15.53125)"/>
<path d="M0 0 C4.881441 2.26638332 7.70028068 5.13520912 10 10 C10.82171924 16.19520912 10.70636199 21.75997098 7 27 C1.59123864 31.88107733 -1.85827132 32.3543966 -9.015625 32.27734375 C-14.37049732 31.77970509 -16.81340277 29.24904972 -20.375 25.5 C-22.77303575 20.33499991 -22.75381535 15.5997712 -22 10 C-17.52212837 0.3553534 -9.85292056 -1.32635469 0 0 Z " fill="#2A8CFF" transform="translate(134,112)"/>
</svg>
