<?xml version="1.0" encoding="UTF-8"?>
<svg version="1.1" xmlns="http://www.w3.org/2000/svg" width="512" height="512">
<path d="M0 0 C0.66 -0.0103125 1.32 -0.020625 2 -0.03125 C5.15179926 0.80594668 6.07766698 1.8128022 8 4.5 C8.60114023 8.19536722 8.50430003 11.86654964 8.45410156 15.60253906 C8.45468567 16.73453735 8.45526978 17.86653564 8.45587158 19.03283691 C8.45308313 22.77741068 8.42195352 26.52119015 8.390625 30.265625 C8.38316536 32.86065231 8.37747112 35.45568526 8.37347412 38.05072021 C8.359758 44.18478316 8.3282275 50.31851792 8.28807616 56.45245719 C8.2433525 63.43665722 8.22136998 70.42087095 8.20129442 77.40517855 C8.15949435 91.77027228 8.08914607 106.135126 8 120.5 C9.22024872 120.5924424 9.22024872 120.5924424 10.46514893 120.68675232 C11.53787048 120.77135208 12.61059204 120.85595184 13.71582031 120.94311523 C14.77681946 121.0253685 15.8378186 121.10762177 16.93096924 121.19236755 C21.00401781 121.60064039 24.82233176 122.43595597 28.75 123.5625 C29.89033691 123.887948 29.89033691 123.887948 31.05371094 124.2199707 C58.11962088 132.38524677 79.83641697 151.57419434 93.21337891 176.19506836 C96.49869451 182.50959042 98.98864137 188.90503342 100.9375 195.75 C101.13698242 196.44569092 101.33646484 197.14138184 101.54199219 197.8581543 C102.66637066 202.15774951 103.21329597 206.35216819 103.55688477 210.78417969 C103.64148453 211.85690125 103.72608429 212.9296228 103.81324768 214.03485107 C103.87487595 214.84835022 103.93650421 215.66184937 104 216.5 C104.89121866 216.49446924 104.89121866 216.49446924 105.80044174 216.48882675 C120.25567163 216.40049888 134.71087744 216.33430174 149.16631699 216.29275131 C156.156875 216.27212382 163.1472529 216.24399999 170.13769531 216.19824219 C176.88094822 216.15412346 183.62397514 216.13087755 190.36737823 216.12049103 C192.9430664 216.11308698 195.51874406 216.09862909 198.09435272 216.07707977 C201.69561605 216.04814116 205.29610048 216.04404015 208.89746094 216.04589844 C209.9677655 216.03151733 211.03807007 216.01713623 212.14080811 216.00231934 C219.36084072 216.04276645 219.36084072 216.04276645 222.66070557 218.40338135 C224.10161024 220.65906728 224.54151149 221.84326462 224.5 224.5 C224.51546875 225.49 224.51546875 225.49 224.53125 226.5 C223.69405332 229.65179926 222.6871978 230.57766698 220 232.5 C216.30463278 233.10114023 212.63345036 233.00430003 208.89746094 232.95410156 C207.76546265 232.95468567 206.63346436 232.95526978 205.46716309 232.95587158 C201.72258932 232.95308313 197.97880985 232.92195352 194.234375 232.890625 C191.63934769 232.88316536 189.04431474 232.87747112 186.44927979 232.87347412 C180.31521684 232.859758 174.18148208 232.8282275 168.04754281 232.78807616 C161.06334278 232.7433525 154.07912905 232.72136998 147.09482145 232.70129442 C132.72972772 232.65949435 118.364874 232.58914607 104 232.5 C103.93837173 233.31349915 103.87674347 234.12699829 103.81324768 234.96514893 C103.72864792 236.03787048 103.64404816 237.11059204 103.55688477 238.21582031 C103.43350487 239.80731903 103.43350487 239.80731903 103.30763245 241.43096924 C102.89935961 245.50401781 102.06404403 249.32233176 100.9375 253.25 C100.72053467 254.01022461 100.50356934 254.77044922 100.2800293 255.55371094 C92.11475323 282.61962088 72.92580566 304.33641697 48.30493164 317.71337891 C41.99040958 320.99869451 35.59496658 323.48864137 28.75 325.4375 C28.05430908 325.63698242 27.35861816 325.83646484 26.6418457 326.04199219 C22.34225049 327.16637066 18.14783181 327.71329597 13.71582031 328.05688477 C12.64309875 328.14148453 11.5703772 328.22608429 10.46514893 328.31324768 C9.65164978 328.37487595 8.83815063 328.43650421 8 328.5 C8.00368717 329.09414577 8.00737434 329.68829155 8.01117325 330.30044174 C8.09950112 344.75567163 8.16569826 359.21087744 8.20724869 373.66631699 C8.22787618 380.656875 8.25600001 387.6472529 8.30175781 394.63769531 C8.34587654 401.38094822 8.36912245 408.12397514 8.37950897 414.86737823 C8.38691302 417.4430664 8.40137091 420.01874406 8.42292023 422.59435272 C8.45185884 426.19561605 8.45595985 429.79610048 8.45410156 433.39746094 C8.46848267 434.4677655 8.48286377 435.53807007 8.49768066 436.64080811 C8.45723355 443.86084072 8.45723355 443.86084072 6.09661865 447.16070557 C3.84093272 448.60161024 2.65673538 449.04151149 0 449 C-0.99 449.01546875 -0.99 449.01546875 -2 449.03125 C-5.15179926 448.19405332 -6.07766698 447.1871978 -8 444.5 C-8.60114023 440.80463278 -8.50430003 437.13345036 -8.45410156 433.39746094 C-8.45468567 432.26546265 -8.45526978 431.13346436 -8.45587158 429.96716309 C-8.45308313 426.22258932 -8.42195352 422.47880985 -8.390625 418.734375 C-8.38316536 416.13934769 -8.37747112 413.54431474 -8.37347412 410.94927979 C-8.359758 404.81521684 -8.3282275 398.68148208 -8.28807616 392.54754281 C-8.2433525 385.56334278 -8.22136998 378.57912905 -8.20129442 371.59482145 C-8.15949435 357.22972772 -8.08914607 342.864874 -8 328.5 C-8.81349915 328.43837173 -9.62699829 328.37674347 -10.46514893 328.31324768 C-11.53787048 328.22864792 -12.61059204 328.14404816 -13.71582031 328.05688477 C-15.30731903 327.93350487 -15.30731903 327.93350487 -16.93096924 327.80763245 C-21.00401781 327.39935961 -24.82233176 326.56404403 -28.75 325.4375 C-29.51022461 325.22053467 -30.27044922 325.00356934 -31.05371094 324.7800293 C-58.11962088 316.61475323 -79.83641697 297.42580566 -93.21337891 272.80493164 C-96.49869451 266.49040958 -98.98864137 260.09496658 -100.9375 253.25 C-101.13698242 252.55430908 -101.33646484 251.85861816 -101.54199219 251.1418457 C-102.66637066 246.84225049 -103.21329597 242.64783181 -103.55688477 238.21582031 C-103.68378441 236.60673798 -103.68378441 236.60673798 -103.81324768 234.96514893 C-103.87487595 234.15164978 -103.93650421 233.33815063 -104 232.5 C-104.89121866 232.50553076 -104.89121866 232.50553076 -105.80044174 232.51117325 C-120.25567163 232.59950112 -134.71087744 232.66569826 -149.16631699 232.70724869 C-156.156875 232.72787618 -163.1472529 232.75600001 -170.13769531 232.80175781 C-176.88094822 232.84587654 -183.62397514 232.86912245 -190.36737823 232.87950897 C-192.9430664 232.88691302 -195.51874406 232.90137091 -198.09435272 232.92292023 C-201.69561605 232.95185884 -205.29610048 232.95595985 -208.89746094 232.95410156 C-210.50291779 232.97567322 -210.50291779 232.97567322 -212.14080811 232.99768066 C-219.36084072 232.95723355 -219.36084072 232.95723355 -222.66070557 230.59661865 C-224.10161024 228.34093272 -224.54151149 227.15673538 -224.5 224.5 C-224.51546875 223.51 -224.51546875 223.51 -224.53125 222.5 C-223.69405332 219.34820074 -222.6871978 218.42233302 -220 216.5 C-216.30463278 215.89885977 -212.63345036 215.99569997 -208.89746094 216.04589844 C-207.76546265 216.04531433 -206.63346436 216.04473022 -205.46716309 216.04412842 C-201.72258932 216.04691687 -197.97880985 216.07804648 -194.234375 216.109375 C-191.63934769 216.11683464 -189.04431474 216.12252888 -186.44927979 216.12652588 C-180.31521684 216.140242 -174.18148208 216.1717725 -168.04754281 216.21192384 C-161.06334278 216.2566475 -154.07912905 216.27863002 -147.09482145 216.29870558 C-132.72972772 216.34050565 -118.364874 216.41085393 -104 216.5 C-103.90436264 215.26833099 -103.90436264 215.26833099 -103.80679321 214.01177979 C-103.7205368 212.9331366 -103.6342804 211.85449341 -103.54541016 210.74316406 C-103.46102692 209.67455139 -103.37664368 208.60593872 -103.28970337 207.50494385 C-101.11741575 184.97292311 -88.52267508 165.21257149 -73 149.5 C-72.15824219 148.63375 -71.31648437 147.7675 -70.44921875 146.875 C-54.38599493 131.27490403 -30.58864356 120.35826121 -8 120.5 C-8.00368717 119.90585423 -8.00737434 119.31170845 -8.01117325 118.69955826 C-8.09950112 104.24432837 -8.16569826 89.78912256 -8.20724869 75.33368301 C-8.22787618 68.343125 -8.25600001 61.3527471 -8.30175781 54.36230469 C-8.34587654 47.61905178 -8.36912245 40.87602486 -8.37950897 34.13262177 C-8.38691302 31.5569336 -8.40137091 28.98125594 -8.42292023 26.40564728 C-8.45185884 22.80438395 -8.45595985 19.20389952 -8.45410156 15.60253906 C-8.46848267 14.5322345 -8.48286377 13.46192993 -8.49768066 12.35919189 C-8.45723355 5.13915928 -8.45723355 5.13915928 -6.09661865 1.83929443 C-3.84093272 0.39838976 -2.65673538 -0.04151149 0 0 Z M-52.6875 175.8125 C-66.59792527 190.16452607 -71.43355881 208.16321749 -71.43823242 227.61010742 C-71.27462627 236.64880669 -69.4723597 244.20278691 -66 252.5 C-65.61585938 253.43972656 -65.23171875 254.37945312 -64.8359375 255.34765625 C-61.88661539 261.83817124 -57.69449039 267.17503359 -53 272.5 C-52.32066406 273.27472656 -51.64132813 274.04945313 -50.94140625 274.84765625 C-37.8405638 288.86195193 -19.94787057 295.45034418 -1.08447266 296.46142578 C17.35589753 296.80267414 35.54647423 289.39369221 48.82104492 276.75073242 C63.51711693 262.23648775 71.16958934 245.43218997 71.4375 224.6875 C71.32674885 203.81881962 63.51595237 187.36327908 49.25 172.375 C19.49991888 143.51831471 -24.01316218 148.64477993 -52.6875 175.8125 Z " fill="#2A8CFF" transform="translate(256,31.5)"/>
<path d="M0 0 C0.029729 1.05127075 0.029729 1.05127075 0.06005859 2.1237793 C0.15556166 5.31205162 0.26513871 8.49969147 0.375 11.6875 C0.4059375 12.79029297 0.436875 13.89308594 0.46875 15.02929688 C0.52675781 16.6293457 0.52675781 16.6293457 0.5859375 18.26171875 C0.6173584 19.24100342 0.6487793 20.22028809 0.68115234 21.22924805 C1.01822782 24.15839782 1.68608379 26.36545499 3 29 C5.79870027 30.39935013 7.90498792 30.25265405 11 30 C13.55949546 28.14657225 13.97918798 27.06243607 15 24 C15.14889747 22.15533558 15.2479101 20.30642725 15.31640625 18.45703125 C15.37924805 16.84731445 15.37924805 16.84731445 15.44335938 15.20507812 C15.48267578 14.08552734 15.52199219 12.96597656 15.5625 11.8125 C15.62727539 10.11577148 15.62727539 10.11577148 15.69335938 8.38476562 C15.79949099 5.58996646 15.90154385 2.79507838 16 0 C17.57258778 0.29167592 19.1439737 0.58983528 20.71484375 0.890625 C21.59003662 1.05594727 22.46522949 1.22126953 23.36694336 1.39160156 C37.85665126 4.73961752 49.0151822 14.98922364 57 27 C60.71471575 33.04200754 64 40.82708762 64 48 C62.94872925 48.029729 62.94872925 48.029729 61.8762207 48.06005859 C58.68794838 48.15556166 55.50030853 48.26513871 52.3125 48.375 C50.65831055 48.42140625 50.65831055 48.42140625 48.97070312 48.46875 C47.3706543 48.52675781 47.3706543 48.52675781 45.73828125 48.5859375 C44.75899658 48.6173584 43.77971191 48.6487793 42.77075195 48.68115234 C39.84160218 49.01822782 37.63454501 49.68608379 35 51 C33.60064987 53.79870027 33.74734595 55.90498792 34 59 C35.85342775 61.55949546 36.93756393 61.97918798 40 63 C41.84466442 63.14889747 43.69357275 63.2479101 45.54296875 63.31640625 C47.15268555 63.37924805 47.15268555 63.37924805 48.79492188 63.44335938 C49.91447266 63.48267578 51.03402344 63.52199219 52.1875 63.5625 C53.31865234 63.60568359 54.44980469 63.64886719 55.61523438 63.69335938 C58.41003354 63.79949099 61.20492162 63.90154385 64 64 C63.70832408 65.57258778 63.41016472 67.1439737 63.109375 68.71484375 C62.94405273 69.59003662 62.77873047 70.46522949 62.60839844 71.36694336 C59.29075713 85.72519434 49.06561951 97.23904162 37 105 C30.16128681 108.78028868 23.64101885 110.61140345 16 112 C15.970271 110.94872925 15.970271 110.94872925 15.93994141 109.8762207 C15.84443834 106.68794838 15.73486129 103.50030853 15.625 100.3125 C15.5940625 99.20970703 15.563125 98.10691406 15.53125 96.97070312 C15.47324219 95.3706543 15.47324219 95.3706543 15.4140625 93.73828125 C15.3826416 92.75899658 15.3512207 91.77971191 15.31884766 90.77075195 C14.98177218 87.84160218 14.31391621 85.63454501 13 83 C10.20129973 81.60064987 8.09501208 81.74734595 5 82 C2.44050454 83.85342775 2.02081202 84.93756393 1 88 C0.85110253 89.84466442 0.7520899 91.69357275 0.68359375 93.54296875 C0.62075195 95.15268555 0.62075195 95.15268555 0.55664062 96.79492188 C0.51732422 97.91447266 0.47800781 99.03402344 0.4375 100.1875 C0.37272461 101.88422852 0.37272461 101.88422852 0.30664062 103.61523438 C0.20050901 106.41003354 0.09845615 109.20492162 0 112 C-1.57258778 111.70832408 -3.1439737 111.41016472 -4.71484375 111.109375 C-5.59003662 110.94405273 -6.46522949 110.77873047 -7.36694336 110.60839844 C-21.85665126 107.26038248 -33.0151822 97.01077636 -41 85 C-44.71471575 78.95799246 -48 71.17291238 -48 64 C-46.94872925 63.970271 -46.94872925 63.970271 -45.8762207 63.93994141 C-42.68794838 63.84443834 -39.50030853 63.73486129 -36.3125 63.625 C-34.65831055 63.57859375 -34.65831055 63.57859375 -32.97070312 63.53125 C-31.90400391 63.49257813 -30.83730469 63.45390625 -29.73828125 63.4140625 C-28.75899658 63.3826416 -27.77971191 63.3512207 -26.77075195 63.31884766 C-23.84160218 62.98177218 -21.63454501 62.31391621 -19 61 C-17.60064987 58.20129973 -17.74734595 56.09501208 -18 53 C-19.85342775 50.44050454 -20.93756393 50.02081202 -24 49 C-25.84466442 48.85110253 -27.69357275 48.7520899 -29.54296875 48.68359375 C-31.15268555 48.62075195 -31.15268555 48.62075195 -32.79492188 48.55664062 C-33.91447266 48.51732422 -35.03402344 48.47800781 -36.1875 48.4375 C-37.31865234 48.39431641 -38.44980469 48.35113281 -39.61523438 48.30664062 C-42.41003354 48.20050901 -45.20492162 48.09845615 -48 48 C-47.70832408 46.42741222 -47.41016472 44.8560263 -47.109375 43.28515625 C-46.94405273 42.40996338 -46.77873047 41.53477051 -46.60839844 40.63305664 C-43.26038248 26.14334874 -33.01077636 14.9848178 -21 7 C-14.95799246 3.28528425 -7.17291238 0 0 0 Z " fill="#2A8CFF" transform="translate(248,200)"/>
<path d="M0 0 C10.89 0 21.78 0 33 0 C30.67449859 18.60401128 30.67449859 18.60401128 28.75 25.4375 C28.42140991 26.62931885 28.42140991 26.62931885 28.08618164 27.84521484 C27.4124558 30.23714372 26.71335806 32.61961553 26 35 C25.7942334 35.6914209 25.5884668 36.3828418 25.37646484 37.09521484 C17.63086869 62.42374493 4.44134753 86.10347192 -13 106 C-13.71542969 106.825 -14.43085938 107.65 -15.16796875 108.5 C-24.91550932 119.54146188 -35.13578062 129.30791173 -47 138 C-47.56638184 138.41604492 -48.13276367 138.83208984 -48.71630859 139.26074219 C-68.5565028 153.61855274 -91.03555099 163.96059797 -114.625 170.3125 C-115.96498047 170.67674072 -115.96498047 170.67674072 -117.33203125 171.04833984 C-125.61261475 173.15881324 -133.32274508 173.91534314 -142 175 C-142 164.11 -142 153.22 -142 142 C-137.96548924 140.84728264 -134.02120065 139.73230619 -129.953125 138.7734375 C-117.04402448 135.63908251 -104.99308819 131.72738958 -93 126 C-92.32501465 125.67773438 -91.6500293 125.35546875 -90.95458984 125.0234375 C-75.65214301 117.57470751 -62.59160747 107.35697313 -50 96 C-49.25105469 95.32453125 -48.50210938 94.6490625 -47.73046875 93.953125 C-24.24810143 71.57074637 -9.59509986 40.55661771 -2.57495117 9.3449707 C-1.8055293 6.20684032 -0.8876457 3.10675996 0 0 Z " fill="#416FFF" transform="translate(422,280)"/>
<path d="M0 0 C18.83511307 2.35438913 18.83511307 2.35438913 27.25 4.625 C28.22324219 4.88587402 29.19648438 5.14674805 30.19921875 5.41552734 C73.07865688 17.32725682 111.85257504 43.94839913 138 80 C138.41169434 80.56203125 138.82338867 81.1240625 139.24755859 81.703125 C157.67697448 107.16126465 175 142.82839424 175 175 C164.11 175 153.22 175 142 175 C140.85233961 170.98318863 139.7461842 167.07412446 138.80859375 163.0234375 C128.29638362 119.18818289 102.55389882 81.02361379 64 57 C46.52396128 46.72272694 29.06626004 40.11798814 9.37670898 35.59082031 C6.22979995 34.80853784 3.11791874 33.89083393 0 33 C0 22.11 0 11.22 0 0 Z " fill="#416FFF" transform="translate(280,57)"/>
<path d="M0 0 C10.89 0 21.78 0 33 0 C34.15271736 4.03451076 35.26769381 7.97879935 36.2265625 12.046875 C39.36091749 24.95597552 43.27261042 37.00691181 49 49 C49.32226562 49.67498535 49.64453125 50.3499707 49.9765625 51.04541016 C69.02205633 90.17189977 104.69020753 119.97133693 145.55859375 134.21386719 C152.15045534 136.33644662 158.90248256 137.9062606 165.6550293 139.42504883 C168.79315968 140.1944707 171.89324004 141.1123543 175 142 C175 152.89 175 163.78 175 175 C156.36637363 172.6707967 156.36637363 172.6707967 148.1875 170.3125 C147.2608252 170.05049805 146.33415039 169.78849609 145.37939453 169.51855469 C117.12635442 161.3470249 91.21152552 148.47068023 69 129 C68.175 128.28457031 67.35 127.56914062 66.5 126.83203125 C55.45853812 117.08449068 45.69208827 106.86421938 37 95 C36.58395508 94.43361816 36.16791016 93.86723633 35.73925781 93.28369141 C21.38144726 73.4434972 11.03940203 50.96444901 4.6875 27.375 C4.44467285 26.48167969 4.2018457 25.58835937 3.95166016 24.66796875 C1.84118676 16.38738525 1.08465686 8.67725492 0 0 Z " fill="#13A8FF" transform="translate(57,280)"/>
<path d="M0 0 C0 10.89 0 21.78 0 33 C-4.03451076 34.15271736 -7.97879935 35.26769381 -12.046875 36.2265625 C-24.95597552 39.36091749 -37.00691181 43.27261042 -49 49 C-49.67498535 49.32226562 -50.3499707 49.64453125 -51.04541016 49.9765625 C-89.60593797 68.74656466 -119.14557847 103.44192441 -133.48681641 143.63964844 C-136.48139911 152.41072945 -138.49443914 161.28436542 -140.23828125 170.37890625 C-141 174 -141 174 -142 175 C-144.44830426 175.08843793 -146.86820599 175.11528752 -149.31640625 175.09765625 C-150.04746078 175.0962413 -150.77851532 175.09482635 -151.53172302 175.09336853 C-153.87535632 175.08775408 -156.21889539 175.07519922 -158.5625 175.0625 C-160.14778508 175.05748686 -161.73307166 175.05292363 -163.31835938 175.04882812 C-167.2122761 175.03777997 -171.10612205 175.02050572 -175 175 C-173.97288804 165.76325626 -172.80184173 156.74387871 -170.375 147.75 C-170.11412598 146.77675781 -169.85325195 145.80351562 -169.58447266 144.80078125 C-157.67274318 101.92134312 -131.05160087 63.14742496 -95 37 C-94.43796875 36.58830566 -93.8759375 36.17661133 -93.296875 35.75244141 C-67.83873535 17.32302552 -32.17160576 0 0 0 Z " fill="#13A8FF" transform="translate(232,57)"/>
<path d="M0 0 C11.22 0 22.44 0 34 0 C34.99 3.135 35.98 6.27 37 9.5 C46.93775718 39.78828976 66.55344027 66.13095961 95.1796875 81.14306641 C97.41504192 82.24260587 99.66548885 83.29097178 101.9375 84.3125 C102.60322021 84.61349609 103.26894043 84.91449219 103.95483398 85.22460938 C111.48814035 88.45481731 119.08178955 90.52555924 127 93 C127 104.22 127 115.44 127 127 C94.87405509 121.1143307 67.48645867 107.66754449 44 85 C42.72189453 83.81664062 42.72189453 83.81664062 41.41796875 82.609375 C18.52585024 60.83482448 5.56494489 30.60719689 0 0 Z " fill="#19A1FF" transform="translate(105,280)"/>
<path d="M0 0 C0 11.22 0 22.44 0 34 C-5.4759375 35.7325 -5.4759375 35.7325 -11.0625 37.5 C-42.61448695 47.88360714 -67.23462285 68.3403509 -82.375 98.0625 C-86.01973449 105.47412866 -88.59367747 113.10950055 -91 121 C-91.66 122.98 -92.32 124.96 -93 127 C-104.22 127 -115.44 127 -127 127 C-120.95534556 94.84243835 -107.76296339 67.58532479 -85 44 C-84.21109375 43.14792969 -83.4221875 42.29585937 -82.609375 41.41796875 C-63.73039056 21.57002981 -28.48180077 0 0 0 Z " fill="#19A1FF" transform="translate(232,105)"/>
<path d="M0 0 C11.22 0 22.44 0 34 0 C28.1143307 32.12594491 14.66754449 59.51354133 -8 83 C-8.78890625 83.85207031 -9.5778125 84.70414062 -10.390625 85.58203125 C-31.90783029 108.20359641 -62.53609254 121.92268209 -93 127 C-93 115.78 -93 104.56 -93 93 C-89.865 92.01 -86.73 91.02 -83.5 90 C-53.21171024 80.06224282 -26.86904039 60.44655973 -11.85693359 31.8203125 C-10.75739413 29.58495808 -9.70902822 27.33451115 -8.6875 25.0625 C-8.38650391 24.39677979 -8.08550781 23.73105957 -7.77539062 23.04516602 C-4.54518269 15.51185965 -2.47444076 7.91821045 0 0 Z " fill="#3B76FF" transform="translate(373,280)"/>
<path d="M0 0 C32.12594491 5.8856693 59.51354133 19.33245551 83 42 C83.85207031 42.78890625 84.70414062 43.5778125 85.58203125 44.390625 C108.20359641 65.90783029 121.92268209 96.53609254 127 127 C115.78 127 104.56 127 93 127 C92.01 123.865 91.02 120.73 90 117.5 C80.06224282 87.21171024 60.44655973 60.86904039 31.8203125 45.85693359 C29.58495808 44.75739413 27.33451115 43.70902822 25.0625 42.6875 C24.39677979 42.38650391 23.73105957 42.08550781 23.04516602 41.77539062 C15.51185965 38.54518269 7.91821045 36.47444076 0 34 C0 22.78 0 11.56 0 0 Z " fill="#3B76FF" transform="translate(280,105)"/>
<path d="M0 0 C0.87269531 -0.0038269 1.74539063 -0.00765381 2.64453125 -0.01159668 C4.48699092 -0.0143149 6.32948924 -0.00695994 8.171875 0.00976562 C10.99045934 0.03117752 13.80649485 0.00996199 16.625 -0.015625 C18.41667229 -0.01298171 20.20834299 -0.00785669 22 0 C22.84175781 -0.00809692 23.68351562 -0.01619385 24.55078125 -0.02453613 C28.13136419 0.03278396 30.39761762 0.18098442 33.52929688 2.00195312 C35.73374916 5.79314264 35.57275697 9.21617695 35.53125 13.53125 C35.53699036 14.84029297 35.53699036 14.84029297 35.54284668 16.17578125 C35.5455649 18.01824092 35.53820994 19.86073924 35.52148438 21.703125 C35.50007248 24.52170934 35.52128801 27.33774485 35.546875 30.15625 C35.54423171 31.94792229 35.53910669 33.73959299 35.53125 35.53125 C35.53934692 36.37300781 35.54744385 37.21476562 35.55578613 38.08203125 C35.46235399 43.91840618 35.46235399 43.91840618 33.09179688 47.06054688 C30.8272647 48.65269695 29.7390083 49.074047 27 49.03125 C26.34 49.0415625 25.68 49.051875 25 49.0625 C22.02221013 48.27152457 20.9101031 46.93634934 19 44.53125 C18.390625 41.078125 18.390625 41.078125 18.25 37.28125 C18.19328125 36.01796875 18.1365625 34.7546875 18.078125 33.453125 C18.05234375 32.48890625 18.0265625 31.5246875 18 30.53125 C17.5409024 30.99256821 17.08180481 31.45388641 16.60879517 31.92918396 C11.84278728 36.71726454 7.07330322 41.50186174 2.30175781 46.28442383 C0.51993287 48.07128677 -1.26099478 49.85904494 -3.04101562 51.64770508 C-5.59531722 54.21409552 -8.15279701 56.77728057 -10.7109375 59.33984375 C-11.50994476 60.1440123 -12.30895203 60.94818085 -13.13217163 61.77671814 C-13.87278839 62.51741043 -14.61340515 63.25810272 -15.37646484 64.02124023 C-16.02932465 64.67632065 -16.68218445 65.33140106 -17.35482788 66.0063324 C-20.35376727 68.78606311 -22.97667169 68.88171657 -27.0234375 68.80078125 C-29 68.53125 -29 68.53125 -31.5 67.03125 C-33.19131581 64.21239032 -33.74758153 61.95641799 -33.57899475 58.65893555 C-32.86283796 56.02720797 -31.76462842 54.74152251 -29.92358398 52.73828125 C-29.2878244 52.04331543 -28.65206482 51.34834961 -27.99703979 50.63232422 C-24.88929557 47.36268419 -21.73770598 44.14555152 -18.53515625 40.96875 C-17.85698349 40.29199219 -17.17881073 39.61523438 -16.48008728 38.91796875 C-14.34325695 36.78667325 -12.20295177 34.65890782 -10.0625 32.53125 C-8.60067877 31.07445221 -7.13908813 29.61742299 -5.67773438 28.16015625 C-2.121146 24.61451027 1.43856016 21.07202261 5 17.53125 C3.55367188 17.49257813 3.55367188 17.49257813 2.078125 17.453125 C0.18320312 17.36804687 0.18320312 17.36804687 -1.75 17.28125 C-3.00296875 17.23484375 -4.2559375 17.1884375 -5.546875 17.140625 C-9.43097385 16.45519579 -10.64710245 15.62579017 -13 12.53125 C-13.53125 10.53125 -13.53125 10.53125 -13.5 8.53125 C-13.5103125 7.87125 -13.520625 7.21125 -13.53125 6.53125 C-11.69061453 -0.39820116 -5.94975317 -0.05723107 0 0 Z " fill="#4F5EFF" transform="translate(445,31.46875)"/>
<path d="M0 0 C0.87269531 -0.0038269 1.74539062 -0.00765381 2.64453125 -0.01159668 C4.48699092 -0.0143149 6.32948924 -0.00695994 8.171875 0.00976562 C10.99045934 0.03117752 13.80649485 0.00996199 16.625 -0.015625 C18.41667229 -0.01298171 20.20834299 -0.00785669 22 0 C22.84175781 -0.00809692 23.68351562 -0.01619385 24.55078125 -0.02453613 C30.38715618 0.06889601 30.38715618 0.06889601 33.52929688 2.43945312 C35.12144695 4.7039853 35.542797 5.7922417 35.5 8.53125 C35.5103125 9.19125 35.520625 9.85125 35.53125 10.53125 C34.74027457 13.50903987 33.40509934 14.6211469 31 16.53125 C27.546875 17.140625 27.546875 17.140625 23.75 17.28125 C22.48671875 17.33796875 21.2234375 17.3946875 19.921875 17.453125 C18.95765625 17.47890625 17.9934375 17.5046875 17 17.53125 C17.46131821 17.9903476 17.92263641 18.44944519 18.39793396 18.92245483 C23.18601454 23.68846272 27.97061174 28.45794678 32.75317383 33.22949219 C34.54003677 35.01131713 36.32779494 36.79224478 38.11645508 38.57226562 C40.68284552 41.12656722 43.24603057 43.68404701 45.80859375 46.2421875 C46.6127623 47.04119476 47.41693085 47.84020203 48.24546814 48.66342163 C48.98616043 49.40403839 49.72685272 50.14465515 50.48999023 50.90771484 C51.14507065 51.56057465 51.80015106 52.21343445 52.4750824 52.88607788 C55.25481311 55.88501727 55.35046657 58.50792169 55.26953125 62.5546875 C55 64.53125 55 64.53125 53.5 67.03125 C50.68114032 68.72256581 48.42516799 69.27883153 45.12768555 69.11024475 C42.49595797 68.39408796 41.21027251 67.29587842 39.20703125 65.45483398 C38.51206543 64.8190744 37.81709961 64.18331482 37.10107422 63.52828979 C33.83143419 60.42054557 30.61430152 57.26895598 27.4375 54.06640625 C26.76074219 53.38823349 26.08398438 52.71006073 25.38671875 52.01133728 C23.25542325 49.87450695 21.12765782 47.73420177 19 45.59375 C17.54320221 44.13192877 16.08617299 42.67033813 14.62890625 41.20898438 C11.08326027 37.652396 7.54077261 34.09268984 4 30.53125 C3.97421875 31.49546875 3.9484375 32.4596875 3.921875 33.453125 C3.86515625 34.71640625 3.8084375 35.9796875 3.75 37.28125 C3.68039063 39.16070312 3.68039063 39.16070312 3.609375 41.078125 C2.92394579 44.96222385 2.09454017 46.17835245 -1 48.53125 C-3 49.0625 -3 49.0625 -5 49.03125 C-5.99 49.04671875 -5.99 49.04671875 -7 49.0625 C-10.05368756 48.25136424 -11.09111769 47.06144712 -13 44.53125 C-13.60114553 41.53388779 -13.56057764 38.58015723 -13.53125 35.53125 C-13.5350769 34.65855469 -13.53890381 33.78585938 -13.54284668 32.88671875 C-13.5455649 31.04425908 -13.53820994 29.20176076 -13.52148438 27.359375 C-13.50007248 24.54079066 -13.52128801 21.72475515 -13.546875 18.90625 C-13.54423171 17.11457771 -13.53910669 15.32290701 -13.53125 13.53125 C-13.53934692 12.68949219 -13.54744385 11.84773438 -13.55578613 10.98046875 C-13.49846604 7.39988581 -13.35026558 5.13363238 -11.52929688 2.00195312 C-7.73810736 -0.20249916 -4.31507305 -0.04150697 0 0 Z " fill="#05B9FF" transform="translate(45,31.46875)"/>
<path d="M0 0 C2.63172757 0.71615679 3.91741304 1.81436633 5.9206543 3.65541077 C6.61562012 4.29117035 7.31058594 4.92692993 8.02661133 5.58195496 C11.29625136 8.68969918 14.51338403 11.84128877 17.69018555 15.0438385 C18.36694336 15.72201126 19.04370117 16.40018402 19.7409668 17.09890747 C21.87226229 19.2357378 24.00002773 21.37604298 26.12768555 23.51649475 C27.58448334 24.97831598 29.04151256 26.43990662 30.4987793 27.90126038 C34.04442528 31.45784875 37.58691294 35.01755491 41.12768555 38.57899475 C41.16635742 37.13266663 41.16635742 37.13266663 41.20581055 35.65711975 C41.29088867 33.76219788 41.29088867 33.76219788 41.37768555 31.82899475 C41.4240918 30.576026 41.47049805 29.32305725 41.51831055 28.03211975 C42.20373976 24.1480209 43.03314538 22.93189231 46.12768555 20.57899475 C48.12768555 20.04774475 48.12768555 20.04774475 50.12768555 20.07899475 C50.78768555 20.06868225 51.44768555 20.05836975 52.12768555 20.04774475 C55.18137311 20.85888051 56.21880324 22.04879763 58.12768555 24.57899475 C58.72883108 27.57635697 58.68826319 30.53008752 58.65893555 33.57899475 C58.6646759 34.88803772 58.6646759 34.88803772 58.67053223 36.223526 C58.67325045 38.06598567 58.66589549 39.90848399 58.64916992 41.75086975 C58.62775802 44.56945409 58.64897356 47.3854896 58.67456055 50.20399475 C58.67191725 51.99566704 58.66679224 53.78733774 58.65893555 55.57899475 C58.66703247 56.42075256 58.67512939 57.26251038 58.68347168 58.129776 C58.62615159 61.71035894 58.47795113 63.97661237 56.65698242 67.10829163 C52.86579291 69.31274391 49.4427586 69.15175172 45.12768555 69.11024475 C44.25499023 69.11407166 43.38229492 69.11789856 42.4831543 69.12184143 C40.64069463 69.12455965 38.79819631 69.1172047 36.95581055 69.10047913 C34.13722621 69.07906723 31.3211907 69.10028276 28.50268555 69.12586975 C26.71101326 69.12322646 24.91934256 69.11810144 23.12768555 69.11024475 C21.86504883 69.12239014 21.86504883 69.12239014 20.5769043 69.13478088 C14.74052937 69.04134874 14.74052937 69.04134874 11.59838867 66.67079163 C10.0062386 64.40625945 9.58488854 63.31800305 9.62768555 60.57899475 C9.61737305 59.91899475 9.60706055 59.25899475 9.59643555 58.57899475 C10.38741098 55.60120488 11.72258621 54.48909786 14.12768555 52.57899475 C17.58081055 51.96961975 17.58081055 51.96961975 21.37768555 51.82899475 C22.6409668 51.772276 23.90424805 51.71555725 25.20581055 51.65711975 C26.65213867 51.61844788 26.65213867 51.61844788 28.12768555 51.57899475 C27.66636734 51.11989716 27.20504913 50.66079956 26.72975159 50.18778992 C21.941671 45.42178203 17.1570738 40.65229797 12.37451172 35.88075256 C10.58764878 34.09892762 8.79989061 32.31799997 7.01123047 30.53797913 C4.44484002 27.98367753 1.88165498 25.42619774 -0.6809082 22.86805725 C-1.48507675 22.06904999 -2.2892453 21.27004272 -3.11778259 20.44682312 C-4.22882103 19.33589798 -4.22882103 19.33589798 -5.36230469 18.20252991 C-6.0173851 17.5496701 -6.67246552 16.8968103 -7.34739685 16.22416687 C-10.12712756 13.22522748 -10.22278102 10.60232306 -10.1418457 6.55555725 C-9.87231445 4.57899475 -9.87231445 4.57899475 -8.37231445 2.07899475 C-5.55345477 0.38767894 -3.29748244 -0.16858678 0 0 Z " fill="#4F5EFF" transform="translate(421.872314453125,411.42100524902344)"/>
<path d="M0 0 C2.5 1.5 2.5 1.5 4 4 C4.60823186 7.31762832 4.85306232 8.86517303 4 12 C2.66404724 13.89916992 2.66404724 13.89916992 0.92358398 15.79296875 C0.2878244 16.48793457 -0.34793518 17.18290039 -1.00296021 17.89892578 C-4.11070443 21.16856581 -7.26229402 24.38569848 -10.46484375 27.5625 C-11.14301651 28.23925781 -11.82118927 28.91601562 -12.51991272 29.61328125 C-14.65674305 31.74457675 -16.79704823 33.87234218 -18.9375 36 C-20.39932123 37.45679779 -21.86091187 38.91382701 -23.32226562 40.37109375 C-26.878854 43.91673973 -30.43856016 47.45922739 -34 51 C-33.03578125 51.02578125 -32.0715625 51.0515625 -31.078125 51.078125 C-29.18320313 51.16320312 -29.18320313 51.16320312 -27.25 51.25 C-25.37054688 51.31960938 -25.37054688 51.31960938 -23.453125 51.390625 C-19.56902615 52.07605421 -18.35289755 52.90545983 -16 56 C-15.46875 58 -15.46875 58 -15.5 60 C-15.4896875 60.66 -15.479375 61.32 -15.46875 62 C-16.27988576 65.05368756 -17.46980288 66.09111769 -20 68 C-22.99736221 68.60114553 -25.95109277 68.56057764 -29 68.53125 C-29.87269531 68.5350769 -30.74539062 68.53890381 -31.64453125 68.54284668 C-33.48699092 68.5455649 -35.32948924 68.53820994 -37.171875 68.52148438 C-39.99045934 68.50007248 -42.80649485 68.52128801 -45.625 68.546875 C-47.41667229 68.54423171 -49.20834299 68.53910669 -51 68.53125 C-52.26263672 68.54339539 -52.26263672 68.54339539 -53.55078125 68.55578613 C-57.13136419 68.49846604 -59.39761762 68.35026558 -62.52929688 66.52929688 C-64.73374916 62.73810736 -64.57275697 59.31507305 -64.53125 55 C-64.5350769 54.12730469 -64.53890381 53.25460937 -64.54284668 52.35546875 C-64.5455649 50.51300908 -64.53820994 48.67051076 -64.52148438 46.828125 C-64.50007248 44.00954066 -64.52128801 41.19350515 -64.546875 38.375 C-64.54423171 36.58332771 -64.53910669 34.79165701 -64.53125 33 C-64.53934692 32.15824219 -64.54744385 31.31648438 -64.55578613 30.44921875 C-64.46235399 24.61284382 -64.46235399 24.61284382 -62.09179688 21.47070312 C-59.8272647 19.87855305 -58.7390083 19.457203 -56 19.5 C-55.34 19.4896875 -54.68 19.479375 -54 19.46875 C-51.02221013 20.25972543 -49.9101031 21.59490066 -48 24 C-47.390625 27.453125 -47.390625 27.453125 -47.25 31.25 C-47.19328125 32.51328125 -47.1365625 33.7765625 -47.078125 35.078125 C-47.05234375 36.04234375 -47.0265625 37.0065625 -47 38 C-46.5409024 37.53868179 -46.08180481 37.07736359 -45.60879517 36.60206604 C-40.84278728 31.81398546 -36.07330322 27.02938826 -31.30175781 22.24682617 C-29.51993287 20.45996323 -27.73900522 18.67220506 -25.95898438 16.88354492 C-23.40468278 14.31715448 -20.84720299 11.75396943 -18.2890625 9.19140625 C-17.49005524 8.3872377 -16.69104797 7.58306915 -15.86782837 6.75453186 C-14.75690323 5.64349342 -14.75690323 5.64349342 -13.62353516 4.51000977 C-12.97067535 3.85492935 -12.31781555 3.19984894 -11.64517212 2.5249176 C-8.23103558 -0.63966125 -4.44639812 -0.60632702 0 0 Z " fill="#05B9FF" transform="translate(96,412)"/>
</svg>
