<svg xmlns="http://www.w3.org/2000/svg" xmlns:xlink="http://www.w3.org/1999/xlink" width="1024" zoomAndPan="magnify" viewBox="0 0 768 767.999994" height="1024" preserveAspectRatio="xMidYMid meet" version="1.0"><defs><clipPath id="f58f622214"><path d="M 67.464844 61.414062 L 700.464844 61.414062 L 700.464844 706.414062 L 67.464844 706.414062 Z M 67.464844 61.414062 " clip-rule="nonzero"/></clipPath></defs><g clip-path="url(#f58f622214)"><path fill="#ffffff" d="M 699.527344 468.855469 C 686.523438 434.15625 666.398438 399.296875 642.851562 370.691406 C 641.066406 368.519531 638.476562 367.164062 635.675781 366.933594 C 632.875 366.699219 630.097656 367.617188 627.980469 369.464844 C 622.296875 374.425781 616.363281 379.457031 610.277344 384.492188 C 609.742188 383.882812 609.207031 383.265625 608.667969 382.667969 C 604.953125 378.519531 598.628906 378.035156 594.324219 381.566406 C 565.503906 405.214844 534.351562 428.039062 501.226562 449.796875 C 467.050781 410.042969 422 382.691406 372.132812 370.65625 C 414.683594 349.207031 443.941406 305.105469 443.941406 254.292969 C 443.941406 248.503906 443.546875 242.703125 442.78125 236.960938 C 444.210938 235.167969 445.058594 232.90625 445.058594 230.472656 L 445.058594 141.851562 L 469.484375 135.363281 L 469.484375 204.304688 L 454.355469 213.039062 C 451.136719 214.898438 449.15625 218.332031 449.15625 222.046875 L 449.15625 284.058594 C 449.15625 288.003906 451.382812 291.605469 454.910156 293.367188 C 456.382812 294.101562 457.972656 294.460938 459.554688 294.460938 C 461.769531 294.460938 463.96875 293.757812 465.808594 292.375 L 479.886719 281.785156 L 493.96875 292.375 C 497.121094 294.742188 501.339844 295.128906 504.867188 293.367188 C 508.394531 291.605469 510.621094 288.003906 510.621094 284.058594 L 510.621094 222.046875 C 510.621094 218.332031 508.640625 214.898438 505.421875 213.039062 L 490.289062 204.304688 L 490.289062 129.839844 L 493.257812 129.046875 C 497.816406 127.839844 500.988281 123.710938 500.988281 118.996094 C 500.988281 114.277344 497.816406 110.152344 493.257812 108.941406 L 316.382812 61.960938 C 314.632812 61.496094 312.792969 61.496094 311.042969 61.960938 L 134.167969 108.945312 C 129.609375 110.152344 126.4375 114.28125 126.4375 118.996094 C 126.4375 123.714844 129.609375 127.839844 134.167969 129.050781 L 182.363281 141.851562 L 182.363281 230.472656 C 182.363281 232.90625 183.214844 235.171875 184.644531 236.960938 C 183.878906 242.703125 183.484375 248.503906 183.484375 254.292969 C 183.484375 305.128906 212.765625 349.246094 255.347656 370.683594 C 215.625 380.308594 178.664062 399.691406 147.839844 427.566406 C 102.640625 468.4375 74.191406 524.175781 67.738281 584.507812 C 67.425781 587.441406 68.371094 590.371094 70.34375 592.566406 C 72.320312 594.761719 75.128906 596.015625 78.082031 596.015625 L 238.355469 596.015625 C 238.273438 596.164062 238.1875 596.3125 238.113281 596.464844 C 236.914062 599.007812 236.792969 601.925781 237.777344 604.558594 C 250.78125 639.257812 270.90625 674.117188 294.453125 702.722656 C 296.238281 704.890625 298.828125 706.246094 301.628906 706.476562 C 301.917969 706.5 302.199219 706.511719 302.484375 706.511719 C 304.992188 706.511719 307.421875 705.609375 309.324219 703.949219 C 315.019531 698.976562 320.957031 693.945312 327.027344 688.917969 C 327.5625 689.53125 328.097656 690.144531 328.636719 690.742188 C 330.6875 693.03125 333.527344 694.203125 336.386719 694.203125 C 338.714844 694.203125 341.050781 693.429688 342.980469 691.84375 C 369.835938 669.808594 399.039062 648.277344 429.992188 627.664062 L 429.796875 631.113281 C 429.574219 635.054688 431.609375 638.785156 435.042969 640.738281 C 438.476562 642.6875 442.71875 642.527344 446 640.320312 L 463.757812 628.34375 L 481.144531 640.859375 C 482.945312 642.160156 485.078125 642.820312 487.222656 642.820312 C 488.742188 642.820312 490.269531 642.488281 491.691406 641.8125 C 495.121094 640.183594 497.386719 636.8125 497.605469 633.027344 L 500.054688 591.089844 L 537.59375 609.9375 C 539.070312 610.679688 540.664062 611.046875 542.257812 611.046875 C 544.332031 611.046875 546.394531 610.425781 548.160156 609.210938 C 551.285156 607.058594 552.988281 603.375 552.609375 599.601562 L 550.460938 578.285156 L 569.714844 568.890625 C 573.265625 567.160156 575.53125 563.566406 575.554688 559.613281 C 575.582031 555.660156 573.367188 552.035156 569.839844 550.257812 L 566.753906 548.699219 C 600.078125 532.203125 633.328125 517.675781 665.839844 505.4375 C 671.054688 503.476562 673.796875 497.757812 672.0625 492.464844 C 671.8125 491.703125 671.527344 490.929688 671.269531 490.164062 C 678.675781 487.410156 686.007812 484.785156 693.152344 482.339844 C 695.8125 481.429688 697.992188 479.484375 699.191406 476.941406 C 700.390625 474.402344 700.511719 471.484375 699.527344 468.855469 Z M 489.820312 263.222656 L 486.140625 260.457031 C 482.4375 257.675781 477.339844 257.671875 473.636719 260.457031 L 469.960938 263.226562 L 469.960938 228.054688 L 479.890625 222.320312 L 489.820312 228.054688 Z M 313.710938 411.949219 L 281.273438 386.824219 C 291.867188 385.3125 302.6875 384.519531 313.6875 384.519531 C 313.695312 384.519531 313.703125 384.519531 313.714844 384.519531 C 313.722656 384.519531 313.730469 384.519531 313.738281 384.519531 C 324.683594 384.523438 335.511719 385.304688 346.152344 386.824219 Z M 298.769531 426.691406 L 270.300781 460.445312 L 235.453125 398.339844 C 241.652344 396.070312 247.972656 394.0625 254.40625 392.332031 Z M 372.988281 392.351562 C 379.410156 394.082031 385.734375 396.089844 391.949219 398.375 L 357.121094 460.445312 L 328.652344 426.691406 Z M 313.714844 82.773438 L 450.074219 118.996094 L 313.714844 155.21875 L 177.351562 118.996094 Z M 311.042969 176.03125 C 311.917969 176.265625 312.816406 176.382812 313.714844 176.382812 C 314.613281 176.382812 315.507812 176.265625 316.382812 176.03125 L 424.257812 147.378906 L 424.257812 221.8125 C 407.371094 224.9375 393.144531 227.6875 381.390625 229.960938 C 313.714844 243.042969 313.714844 243.042969 246.035156 229.960938 C 234.28125 227.6875 220.058594 224.9375 203.167969 221.8125 L 203.167969 147.378906 Z M 204.289062 254.292969 C 204.289062 250.621094 204.480469 246.941406 204.847656 243.285156 C 219.289062 245.980469 231.664062 248.371094 242.089844 250.386719 C 277.566406 257.246094 295.640625 260.671875 313.714844 260.671875 C 331.789062 260.671875 349.863281 257.246094 385.339844 250.386719 C 395.761719 248.371094 408.140625 245.980469 422.578125 243.285156 C 422.945312 246.941406 423.140625 250.621094 423.140625 254.292969 C 423.140625 314.625 374.058594 363.707031 313.730469 363.714844 C 313.726562 363.714844 313.71875 363.714844 313.714844 363.714844 C 313.710938 363.714844 313.703125 363.714844 313.699219 363.714844 C 253.367188 363.707031 204.289062 314.625 204.289062 254.292969 Z M 216.140625 406.433594 L 259.507812 483.714844 C 261.175781 486.691406 264.199219 488.65625 267.59375 488.980469 C 267.925781 489.011719 268.25 489.027344 268.578125 489.027344 C 271.625 489.027344 274.542969 487.6875 276.527344 485.332031 L 313.714844 441.242188 L 350.898438 485.332031 C 352.882812 487.6875 355.800781 489.027344 358.847656 489.027344 C 359.171875 489.027344 359.503906 489.011719 359.832031 488.980469 C 363.226562 488.65625 366.25 486.691406 367.921875 483.714844 L 411.257812 406.488281 C 438.472656 419.46875 463.070312 437.941406 483.558594 461.175781 C 469.421875 470.113281 454.960938 478.863281 440.183594 487.394531 C 383.851562 519.921875 327.085938 547.03125 271.464844 567.972656 C 268.144531 569.21875 265.835938 571.996094 265.039062 575.210938 L 89.949219 575.210938 C 101.898438 499.71875 150.402344 437.6875 216.140625 406.433594 Z M 468.652344 567.5625 C 451.636719 567.5625 437.796875 553.71875 437.796875 536.707031 C 437.796875 519.691406 451.640625 505.851562 468.652344 505.851562 C 485.664062 505.851562 499.507812 519.691406 499.507812 536.707031 C 499.507812 553.71875 485.664062 567.5625 468.652344 567.5625 Z M 303.898438 681.160156 C 286.800781 658.828125 271.96875 633.136719 261.171875 607.15625 C 265.226562 605.714844 269.324219 604.214844 273.433594 602.683594 C 278.5625 614.785156 284.679688 627.046875 291.550781 638.953125 C 298.425781 650.859375 305.988281 662.285156 313.902344 672.777344 C 310.523438 675.574219 307.175781 678.371094 303.898438 681.160156 Z M 337.679688 669.351562 C 327.695312 657.242188 318.085938 643.304688 309.566406 628.554688 C 301.050781 613.800781 293.789062 598.511719 288.292969 583.808594 C 331.441406 567.070312 375.179688 546.738281 418.808594 523.160156 C 417.632812 527.480469 416.992188 532.019531 416.992188 536.707031 C 416.992188 551.378906 423.152344 564.632812 433.011719 574.046875 L 431.445312 601.839844 C 398.144531 623.410156 366.648438 646.070312 337.679688 669.351562 Z M 470.035156 607.226562 C 466.496094 604.679688 461.753906 604.609375 458.140625 607.042969 L 451.746094 611.355469 L 453.175781 585.992188 C 458.0625 587.53125 463.261719 588.363281 468.652344 588.363281 C 472.351562 588.363281 475.960938 587.964844 479.441406 587.222656 L 477.941406 612.921875 Z M 534.824219 562.769531 C 530.910156 564.679688 528.597656 568.828125 529.035156 573.160156 L 530.011719 582.855469 L 506.984375 571.296875 C 512.859375 564.792969 517.09375 556.789062 519.066406 547.9375 L 541.753906 559.390625 Z M 543.664062 537.050781 L 518.847656 524.527344 C 514.386719 506.152344 500.082031 491.585938 481.851562 486.765625 C 524.085938 460.769531 563.558594 433.054688 599.625 404.0625 C 609.609375 416.171875 619.222656 430.109375 627.738281 444.859375 C 636.257812 459.613281 643.519531 474.90625 649.011719 489.605469 C 614.367188 503.050781 578.996094 518.996094 543.664062 537.050781 Z M 663.871094 470.726562 C 658.742188 458.625 652.625 446.363281 645.753906 434.457031 C 638.878906 422.554688 631.320312 411.125 623.402344 400.632812 C 626.785156 397.835938 630.132812 395.035156 633.40625 392.25 C 650.503906 414.585938 665.335938 440.277344 676.132812 466.253906 C 672.082031 467.695312 667.984375 469.195312 663.871094 470.726562 Z M 663.871094 470.726562 " fill-opacity="1" fill-rule="nonzero"/></g></svg>