<svg xmlns="http://www.w3.org/2000/svg" xmlns:xlink="http://www.w3.org/1999/xlink" width="1024" zoomAndPan="magnify" viewBox="0 0 768 767.999994" height="1024" preserveAspectRatio="xMidYMid meet" version="1.0"><defs><g/></defs><g fill="#ffffff" fill-opacity="1"><g transform="translate(-42.581242, 680.303896)"><g><path d="M 342.796875 0 L 217.59375 0 L 217.59375 -342.796875 L 218.8125 -399.125 L 220.828125 -460.703125 C 200.023438 -439.910156 185.570312 -426.269531 177.46875 -419.78125 L 109.40625 -365.078125 L 49.03125 -440.453125 L 239.875 -592.390625 L 342.796875 -592.390625 Z M 342.796875 0 "/></g></g></g><g fill="#ffffff" fill-opacity="1"><g transform="translate(317.402283, 680.303896)"><g><path d="M 444.09375 -296.203125 C 444.09375 -192.742188 427.140625 -116.160156 393.234375 -66.453125 C 359.335938 -16.742188 307.140625 8.109375 236.640625 8.109375 C 168.296875 8.109375 116.765625 -17.550781 82.046875 -68.875 C 47.335938 -120.207031 29.984375 -195.984375 29.984375 -296.203125 C 29.984375 -400.742188 46.863281 -477.796875 80.625 -527.359375 C 114.394531 -576.929688 166.398438 -601.71875 236.640625 -601.71875 C 304.984375 -601.71875 356.644531 -575.785156 391.625 -523.921875 C 426.601562 -472.054688 444.09375 -396.148438 444.09375 -296.203125 Z M 154.375 -296.203125 C 154.375 -223.535156 160.65625 -171.46875 173.21875 -140 C 185.78125 -108.53125 206.921875 -92.796875 236.640625 -92.796875 C 265.804688 -92.796875 286.875 -108.734375 299.84375 -140.609375 C 312.8125 -172.484375 319.296875 -224.347656 319.296875 -296.203125 C 319.296875 -368.867188 312.742188 -421.070312 299.640625 -452.8125 C 286.535156 -484.550781 265.535156 -500.421875 236.640625 -500.421875 C 207.191406 -500.421875 186.117188 -484.550781 173.421875 -452.8125 C 160.722656 -421.070312 154.375 -368.867188 154.375 -296.203125 Z M 154.375 -296.203125 "/></g></g></g></svg>