<svg xmlns="http://www.w3.org/2000/svg" xmlns:xlink="http://www.w3.org/1999/xlink" width="1024" zoomAndPan="magnify" viewBox="0 0 768 767.999994" height="1024" preserveAspectRatio="xMidYMid meet" version="1.0"><defs><clipPath id="ec32e4de2d"><path d="M 290 53.410156 L 760 53.410156 L 760 432 L 290 432 Z M 290 53.410156 " clip-rule="nonzero"/></clipPath><clipPath id="6ebed36d7b"><path d="M 13.980469 357 L 515 357 L 515 714.910156 L 13.980469 714.910156 Z M 13.980469 357 " clip-rule="nonzero"/></clipPath></defs><path fill="#ffffff" d="M 144.753906 128.992188 L 156.195312 130.625 L 198.695312 148.609375 L 239.5625 169.859375 L 277.160156 192.742188 L 309.851562 215.628906 L 340.910156 238.511719 L 363.792969 256.492188 L 389.949219 277.746094 L 411.199219 295.726562 L 429.179688 310.4375 L 452.066406 330.050781 L 470.046875 344.765625 L 492.929688 364.378906 L 510.910156 379.09375 L 537.066406 400.34375 L 563.21875 419.957031 L 592.644531 441.207031 L 623.703125 460.824219 L 653.125 477.171875 L 680.914062 490.246094 L 707.070312 500.054688 L 731.589844 506.59375 L 728.320312 516.402344 L 713.605469 544.191406 L 693.992188 571.980469 L 679.28125 589.960938 L 661.296875 609.574219 L 649.855469 621.019531 L 643.316406 625.921875 L 623.703125 624.289062 L 592.644531 616.113281 L 561.585938 604.671875 L 519.085938 583.421875 L 476.585938 557.269531 L 443.890625 534.382812 L 412.832031 511.496094 L 370.332031 478.804688 L 340.910156 455.921875 L 318.023438 437.9375 L 296.773438 421.59375 L 262.445312 395.4375 L 233.023438 374.1875 L 195.425781 348.035156 L 161.097656 326.785156 L 120.234375 303.898438 L 89.175781 289.1875 L 54.847656 276.109375 L 36.867188 269.570312 L 49.941406 243.417969 L 61.386719 223.800781 L 81 196.011719 L 98.984375 174.761719 L 116.964844 155.144531 L 139.847656 132.261719 Z M 144.753906 128.992188 " fill-opacity="1" fill-rule="nonzero"/><g clip-path="url(#ec32e4de2d)"><path fill="#ffffff" d="M 371.96875 53.796875 L 422.640625 53.796875 L 465.140625 58.703125 L 502.738281 66.875 L 546.875 81.585938 L 587.738281 101.203125 L 615.527344 119.183594 L 635.144531 133.894531 L 651.492188 148.609375 L 664.566406 160.050781 L 684.183594 181.300781 L 703.800781 207.453125 L 723.414062 240.148438 L 736.492188 267.9375 L 747.933594 300.628906 L 756.109375 334.957031 L 759.378906 361.109375 L 759.378906 411.785156 L 756.109375 431.398438 L 746.300781 428.132812 L 708.703125 405.246094 L 677.644531 383.996094 L 646.585938 361.109375 L 617.164062 338.226562 L 599.183594 323.515625 L 577.933594 305.53125 L 559.949219 290.820312 L 535.429688 269.570312 L 519.085938 254.859375 L 501.105469 240.148438 L 481.488281 222.167969 L 463.507812 207.453125 L 443.890625 189.472656 L 425.910156 174.761719 L 401.390625 153.511719 L 378.507812 135.53125 L 350.71875 112.644531 L 324.5625 93.03125 L 293.503906 70.144531 L 290.234375 66.875 L 300.042969 63.605469 L 337.640625 57.066406 Z M 371.96875 53.796875 " fill-opacity="1" fill-rule="nonzero"/></g><g clip-path="url(#6ebed36d7b)"><path fill="#ffffff" d="M 15.617188 357.839844 L 30.328125 362.746094 L 61.386719 379.09375 L 95.714844 400.34375 L 126.769531 423.226562 L 156.195312 446.113281 L 179.078125 465.726562 L 197.0625 480.441406 L 215.042969 496.785156 L 233.023438 511.496094 L 251.003906 527.84375 L 268.984375 542.554688 L 290.234375 560.535156 L 313.121094 578.519531 L 345.8125 603.039062 L 389.949219 632.460938 L 421.007812 650.441406 L 458.601562 670.058594 L 499.46875 688.039062 L 514.179688 692.941406 L 514.179688 696.210938 L 473.316406 706.019531 L 429.179688 712.558594 L 407.929688 714.191406 L 363.792969 714.191406 L 329.464844 710.921875 L 293.503906 704.386719 L 252.636719 692.941406 L 219.945312 679.867188 L 187.253906 663.519531 L 156.195312 643.902344 L 130.039062 622.652344 L 110.425781 604.671875 L 94.078125 588.324219 L 76.097656 565.441406 L 61.386719 544.191406 L 46.675781 518.035156 L 33.597656 490.246094 L 22.15625 454.285156 L 15.617188 419.957031 L 13.980469 403.613281 L 13.980469 366.015625 Z M 15.617188 357.839844 " fill-opacity="1" fill-rule="nonzero"/></g></svg>