<svg xmlns="http://www.w3.org/2000/svg" xmlns:xlink="http://www.w3.org/1999/xlink" width="1024" zoomAndPan="magnify" viewBox="0 0 768 767.999994" height="1024" preserveAspectRatio="xMidYMid meet" version="1.0"><defs><clipPath id="641bf2d674"><path d="M 338 43.261719 L 713 43.261719 L 713 420 L 338 420 Z M 338 43.261719 " clip-rule="nonzero"/></clipPath><clipPath id="a9469e1169"><path d="M 54.410156 222 L 360 222 L 360 553 L 54.410156 553 Z M 54.410156 222 " clip-rule="nonzero"/></clipPath><clipPath id="ea50e596e9"><path d="M 417 628 L 493 628 L 493 706.261719 L 417 706.261719 Z M 417 628 " clip-rule="nonzero"/></clipPath><clipPath id="cc6ed6cfeb"><path d="M 340 632 L 416 632 L 416 706.261719 L 340 706.261719 Z M 340 632 " clip-rule="nonzero"/></clipPath></defs><g clip-path="url(#641bf2d674)"><path fill="#ffffff" d="M 712.703125 296.242188 C 707.25 303.429688 701.796875 310.621094 696.34375 317.8125 C 696.023438 318.222656 695.691406 318.617188 695.066406 319.394531 C 689.839844 315.785156 684.617188 312.175781 679.117188 308.367188 C 665.542969 327.375 652.277344 345.960938 638.839844 364.789062 C 641.628906 366.996094 644.1875 369.023438 647.21875 371.429688 C 636.070312 387.121094 624.996094 402.71875 613.328125 419.136719 C 599.769531 409.542969 586.363281 400.035156 572.5625 390.242188 C 584.109375 374.035156 595.351562 358.300781 606.730469 342.335938 C 611.132812 345.425781 615.109375 348.214844 619.847656 351.550781 C 633.296875 332.707031 646.625 314.046875 660.335938 294.824219 C 651.957031 288.914062 643.914062 283.125 635.671875 277.625 C 635.046875 277.199219 632.566406 278.449219 631.789062 279.515625 C 616.679688 300.507812 601.6875 321.589844 586.667969 342.65625 C 584.550781 345.640625 582.128906 348.472656 580.363281 351.65625 C 578.382812 355.222656 576.097656 355.984375 572.246094 354.6875 C 552.699219 348.125 533.082031 341.773438 513.492188 335.34375 C 488.585938 327.179688 463.664062 319.074219 438.804688 310.742188 C 436.324219 309.90625 433.671875 308.246094 432.058594 306.203125 C 409.621094 277.808594 387.351562 249.261719 365.035156 220.761719 C 356.625 210.023438 348.308594 199.238281 339.6875 188.683594 C 337.449219 185.957031 337.492188 184.328125 339.503906 181.523438 C 357.175781 156.96875 374.675781 132.292969 392.222656 107.644531 C 392.710938 106.960938 393.078125 106.199219 393.792969 104.980469 C 376.09375 92.320312 358.515625 79.769531 340.371094 66.804688 C 345.808594 59.039062 351.019531 51.46875 356.472656 44.09375 C 356.929688 43.453125 359.445312 43.515625 360.371094 44.171875 C 385.460938 61.949219 410.472656 79.859375 435.515625 97.714844 C 461.410156 116.191406 487.351562 134.605469 513.261719 153.054688 C 541.167969 172.933594 569.0625 192.839844 596.96875 212.71875 C 623.03125 231.273438 649.109375 249.796875 675.171875 268.351562 C 687.707031 277.261719 700.199219 286.234375 712.703125 295.191406 C 712.703125 295.539062 712.703125 295.890625 712.703125 296.242188 " fill-opacity="1" fill-rule="nonzero"/></g><g clip-path="url(#a9469e1169)"><path fill="#ffffff" d="M 54.898438 222.683594 C 149.09375 222.699219 243.292969 222.742188 337.492188 222.621094 C 342.046875 222.605469 344.910156 223.808594 347.226562 227.753906 C 351.082031 234.304688 355.375 240.613281 359.929688 247.695312 C 357.417969 247.832031 355.757812 248 354.097656 248 C 264.789062 248.015625 175.507812 248.015625 86.199219 247.96875 C 82.636719 247.96875 80.015625 247.710938 80.015625 252.933594 C 80.183594 343.28125 80.136719 433.625 80.136719 523.96875 C 80.136719 524.839844 80.230469 525.707031 80.320312 527.214844 C 153.390625 527.214844 226.445312 527.214844 300.753906 527.214844 C 299.214844 528.859375 298.679688 529.699219 297.933594 530.199219 C 287.5625 537.3125 277.203125 544.472656 266.707031 551.386719 C 265.078125 552.453125 262.761719 552.882812 260.765625 552.882812 C 193.011719 552.957031 125.257812 552.957031 57.484375 552.941406 C 56.632812 552.941406 55.765625 552.730469 54.898438 552.621094 C 54.898438 442.640625 54.898438 332.664062 54.898438 222.683594 " fill-opacity="1" fill-rule="nonzero"/></g><path fill="#ffffff" d="M 564.078125 552.515625 C 556.035156 553.324219 548.816406 554.433594 543.300781 546.40625 C 538.855469 539.933594 532.867188 534.527344 526.683594 527.65625 C 531.574219 527.65625 534.96875 527.65625 538.914062 527.65625 C 538.914062 471.84375 538.914062 416.472656 538.914062 360.1875 C 547.261719 363.113281 554.96875 365.519531 562.375 368.65625 C 563.699219 369.222656 564.246094 372.863281 564.246094 375.070312 C 564.355469 423.875 564.324219 472.695312 564.308594 521.503906 C 564.308594 530.078125 564.339844 538.640625 564.308594 547.214844 C 564.292969 548.921875 564.15625 550.628906 564.078125 552.515625 " fill-opacity="1" fill-rule="nonzero"/><g clip-path="url(#ea50e596e9)"><path fill="#ffffff" d="M 417.738281 648.054688 C 420.085938 646.714844 422.097656 645.40625 424.257812 644.414062 C 425.21875 643.972656 426.605469 643.882812 427.609375 644.203125 C 433.046875 645.890625 437.570312 644.765625 441.5625 640.636719 C 442.539062 639.632812 444.410156 638.945312 445.828125 639.007812 C 451.417969 639.28125 455.332031 636.964844 458.136719 632.226562 C 458.730469 631.222656 460.039062 630.460938 461.183594 630.019531 C 463.148438 629.273438 465.25 628.863281 467.6875 628.207031 C 471.9375 637.085938 476.277344 646.152344 480.621094 655.230469 C 484.472656 663.289062 488.464844 671.300781 492.042969 679.480469 C 492.867188 681.355469 493.066406 684.707031 491.953125 685.863281 C 490.808594 687.066406 487.535156 687.082031 485.554688 686.472656 C 479.324219 684.566406 473.246094 682.175781 467.140625 679.890625 C 463.46875 678.519531 461.167969 679.601562 459.902344 683.335938 C 457.753906 689.792969 455.636719 696.265625 453.125 702.589844 C 452.4375 704.292969 450.367188 706.625 448.996094 706.578125 C 447.273438 706.519531 444.898438 704.675781 444.0625 702.984375 C 435.148438 684.75 426.484375 666.410156 417.738281 648.054688 " fill-opacity="1" fill-rule="nonzero"/></g><g clip-path="url(#cc6ed6cfeb)"><path fill="#ffffff" d="M 406.863281 644.292969 C 410 645.664062 412.683594 646.820312 415.789062 648.160156 C 415.5 648.953125 415.148438 650.113281 414.648438 651.179688 C 406.46875 668.34375 398.332031 685.527344 389.984375 702.617188 C 389.117188 704.386719 386.679688 706.761719 385.308594 706.5625 C 383.542969 706.320312 381.441406 704.035156 380.648438 702.132812 C 378.148438 696.113281 376.230469 689.867188 374.035156 683.714844 C 372.46875 679.296875 370.730469 678.476562 366.296875 680.058594 C 359.902344 682.34375 353.546875 684.84375 347.074219 686.867188 C 345.492188 687.371094 342.777344 687.019531 341.804688 685.953125 C 340.8125 684.855469 340.585938 682.070312 341.257812 680.609375 C 348.675781 664.644531 356.320312 648.800781 363.921875 632.929688 C 364.027344 632.699219 364.347656 632.578125 364.378906 632.546875 C 366.753906 632.929688 368.996094 633.113281 371.140625 633.691406 C 372.195312 633.980469 373.304688 634.804688 373.929688 635.714844 C 377.160156 640.484375 381.605469 642.160156 387.199219 641.351562 C 388.171875 641.214844 389.636719 641.109375 390.152344 641.65625 C 395.285156 647.203125 401.027344 647.8125 406.863281 644.292969 " fill-opacity="1" fill-rule="nonzero"/></g><path fill="#ffffff" d="M 413.046875 610.09375 C 386.800781 610.050781 366.054688 589.195312 366.101562 562.890625 C 366.144531 537.054688 387.226562 516.019531 413.09375 516.003906 C 439.035156 515.972656 460.175781 537.269531 460.101562 563.347656 C 460.039062 589.242188 439.003906 610.140625 413.046875 610.09375 " fill-opacity="1" fill-rule="nonzero"/><path fill="#ffffff" d="M 412.773438 623.179688 C 379.476562 622.769531 353.105469 596.035156 353.230469 562.828125 C 353.351562 529.589844 380.070312 502.964844 413.261719 503.039062 C 446.574219 503.117188 473.230469 530.078125 473.050781 563.515625 C 472.867188 596.597656 445.601562 623.578125 412.773438 623.179688 Z M 489.683594 564.734375 C 492.5 561.472656 492.320312 558.335938 489.394531 555.257812 C 487.335938 553.09375 486.667969 550.597656 488.082031 547.855469 C 490.15625 543.863281 488.90625 541.105469 485.675781 538.195312 C 484.03125 536.703125 482.90625 533.628906 483.058594 531.359375 C 483.332031 527.425781 482.554688 524.578125 478.808594 523.101562 C 475.457031 521.792969 473.902344 519.460938 473.933594 515.925781 C 473.949219 512.195312 472.027344 510.0625 468.402344 509.574219 C 464.839844 509.085938 462.75 507.152344 461.988281 503.710938 C 461.183594 500.070312 458.898438 498.363281 455.242188 498.667969 C 451.480469 498.988281 449.089844 497.417969 447.441406 494.082031 C 445.859375 490.871094 443.191406 489.695312 439.644531 490.824219 C 436.324219 491.890625 433.566406 491.21875 431.371094 488.28125 C 429.074219 485.171875 426.132812 484.667969 422.8125 486.773438 C 419.949219 488.585938 417.238281 488.460938 414.570312 486.285156 C 411.433594 483.726562 408.292969 483.9375 405.402344 486.710938 C 403.054688 488.949219 400.496094 489.40625 397.617188 487.960938 C 393.761719 486.011719 390.824219 487.078125 388.476562 490.519531 C 386.679688 493.140625 384.257812 494.207031 381.089844 493.292969 C 377.28125 492.195312 374.617188 493.808594 373.230469 497.222656 C 371.890625 500.542969 369.800781 502.277344 366.175781 502.203125 C 362.261719 502.109375 360.039062 504.320312 359.519531 508.007812 C 359.03125 511.449219 357.21875 513.382812 353.960938 514.113281 C 349.953125 515.011719 348.246094 517.601562 348.582031 521.546875 C 348.871094 525.003906 347.410156 527.230469 344.316406 528.617188 C 340.890625 530.152344 339.761719 533.019531 340.859375 536.355469 C 342.0625 540.039062 341.058594 542.628906 338.210938 544.960938 C 335.574219 547.125 334.875 549.988281 336.640625 552.941406 C 338.574219 556.171875 338.542969 558.960938 336.136719 561.929688 C 333.851562 564.746094 333.976562 567.75 336.488281 570.414062 C 338.941406 572.972656 339.550781 575.667969 337.921875 578.929688 C 336.183594 582.371094 337.050781 585.359375 340.21875 587.460938 C 343.082031 589.347656 344.027344 591.738281 343.296875 595.089844 C 342.472656 598.929688 343.800781 601.746094 347.714844 603.132812 C 350.929688 604.277344 352.328125 606.714844 352.316406 610.066406 C 352.316406 613.933594 354.265625 616.15625 358.117188 616.628906 C 361.300781 617.027344 363.359375 618.761719 364.058594 621.871094 C 364.988281 626 367.488281 627.992188 371.691406 627.613281 C 374.949219 627.324219 377.160156 628.679688 378.484375 631.589844 C 380.128906 635.136719 383.023438 636.402344 386.542969 635.261719 C 390.078125 634.117188 392.558594 635.046875 394.769531 637.789062 C 397.175781 640.742188 400.160156 641.398438 403.449219 639.328125 C 406.375 637.46875 409.027344 637.683594 411.675781 639.8125 C 414.816406 642.328125 417.921875 642.175781 420.847656 639.386719 C 423.3125 637.042969 425.886719 636.738281 429.011719 638.246094 C 432.332031 639.859375 435.089844 638.976562 437.648438 636.035156 C 438.851562 634.652344 440.601562 633.75 441.914062 633.082031 C 442.492188 632.808594 443.511719 632.394531 444.152344 632.625 L 444.121094 632.59375 C 449.347656 633.417969 451.769531 631.863281 453.597656 628.054688 C 454.480469 626.226562 457.3125 624.550781 459.445312 624.261719 C 463.542969 623.699219 466.226562 622.128906 466.789062 617.96875 C 467.261719 614.511719 469.148438 612.808594 472.453125 612.015625 C 476.09375 611.144531 478 608.664062 477.605469 604.824219 C 477.238281 601.382812 478.625 599.1875 481.671875 597.679688 C 485.175781 595.929688 486.558594 593.140625 485.25 589.210938 C 484.230469 586.210938 484.945312 583.605469 487.566406 581.65625 C 490.960938 579.128906 491.847656 576.15625 489.257812 572.5 C 487.351562 569.820312 487.535156 567.199219 489.683594 564.734375 " fill-opacity="1" fill-rule="nonzero"/><path fill="#ffffff" d="M 455.226562 470.546875 L 184.390625 470.546875 L 184.390625 449.605469 L 455.226562 449.605469 L 455.226562 470.546875 " fill-opacity="1" fill-rule="nonzero"/><path fill="#ffffff" d="M 455.226562 429.617188 L 184.390625 429.617188 L 184.390625 408.660156 L 455.226562 408.660156 L 455.226562 429.617188 " fill-opacity="1" fill-rule="nonzero"/><path fill="#ffffff" d="M 455.226562 387.773438 L 184.390625 387.773438 L 184.390625 366.828125 L 455.226562 366.828125 L 455.226562 387.773438 " fill-opacity="1" fill-rule="nonzero"/><path fill="#ffffff" d="M 343.722656 342.882812 L 184.390625 342.882812 L 184.390625 321.921875 L 343.722656 321.921875 L 343.722656 342.882812 " fill-opacity="1" fill-rule="nonzero"/></svg>