<svg xmlns="http://www.w3.org/2000/svg" xmlns:xlink="http://www.w3.org/1999/xlink" width="80" zoomAndPan="magnify" viewBox="0 0 60 60" height="80" preserveAspectRatio="xMidYMid meet" version="1.0"><defs><clipPath id="442efa73c1"><path d="M 6.84375 2.25 L 53.34375 2.25 L 53.34375 58.5 L 6.84375 58.5 Z M 6.84375 2.25 " clip-rule="nonzero"/></clipPath></defs><g clip-path="url(#442efa73c1)"><path fill="#496bf5" d="M 48.066406 26.4375 C 47.476562 26.742188 46.832031 27.03125 46.152344 27.300781 C 46.019531 27.351562 45.882812 27.378906 45.75 27.378906 C 45.3125 27.378906 44.902344 27.113281 44.730469 26.679688 C 44.511719 26.113281 44.785156 25.476562 45.347656 25.25 C 45.964844 25.007812 46.542969 24.746094 47.074219 24.476562 C 47.613281 24.199219 48.269531 24.417969 48.542969 24.957031 C 48.820312 25.5 48.605469 26.164062 48.066406 26.4375 M 21.105469 28.136719 C 21.003906 28.664062 20.546875 29.027344 20.03125 29.027344 C 19.960938 29.027344 19.890625 29.019531 19.820312 29.007812 C 18.988281 28.84375 18.167969 28.65625 17.390625 28.453125 C 16.808594 28.300781 16.457031 27.699219 16.609375 27.109375 C 16.761719 26.523438 17.355469 26.167969 17.941406 26.324219 C 18.675781 26.515625 19.449219 26.691406 20.242188 26.84375 C 20.832031 26.960938 21.222656 27.539062 21.105469 28.136719 M 15.246094 26.679688 C 15.074219 27.113281 14.664062 27.378906 14.226562 27.378906 C 14.09375 27.378906 13.957031 27.351562 13.824219 27.300781 C 13.144531 27.03125 12.5 26.742188 11.910156 26.4375 C 11.371094 26.164062 11.15625 25.5 11.433594 24.957031 C 11.707031 24.417969 12.363281 24.199219 12.902344 24.476562 C 13.433594 24.746094 14.011719 25.007812 14.628906 25.25 C 15.191406 25.476562 15.464844 26.113281 15.246094 26.679688 M 47.644531 20.648438 C 49.945312 19.625 51.773438 18.417969 53.078125 17.085938 L 53.078125 25.484375 C 52.453125 27.46875 50.242188 29.414062 46.792969 30.949219 C 42.324219 32.941406 36.355469 34.035156 29.988281 34.035156 C 23.621094 34.035156 17.65625 32.941406 13.183594 30.949219 C 9.738281 29.414062 7.523438 27.46875 6.898438 25.484375 L 6.898438 17.085938 C 8.203125 18.417969 10.03125 19.625 12.332031 20.648438 C 17.066406 22.757812 23.335938 23.917969 29.988281 23.917969 C 36.640625 23.917969 42.910156 22.757812 47.644531 20.648438 Z M 45.929688 4.808594 C 50.550781 6.589844 53.097656 9.109375 53.097656 11.902344 C 53.097656 14.691406 50.550781 17.210938 45.929688 18.996094 C 41.65625 20.648438 35.992188 21.554688 29.988281 21.554688 C 23.984375 21.554688 18.320312 20.648438 14.046875 18.996094 C 9.425781 17.210938 6.878906 14.691406 6.878906 11.902344 C 6.878906 9.109375 9.425781 6.589844 14.046875 4.808594 C 18.320312 3.15625 23.984375 2.246094 29.988281 2.246094 C 35.992188 2.246094 41.65625 3.15625 45.929688 4.808594 Z M 48.542969 37.226562 C 48.820312 37.765625 48.605469 38.429688 48.066406 38.707031 C 47.476562 39.007812 46.832031 39.296875 46.152344 39.566406 C 46.019531 39.621094 45.882812 39.644531 45.75 39.644531 C 45.3125 39.644531 44.902344 39.378906 44.730469 38.945312 C 44.511719 38.378906 44.785156 37.742188 45.347656 37.519531 C 45.964844 37.273438 46.542969 37.015625 47.074219 36.742188 C 47.613281 36.46875 48.269531 36.683594 48.542969 37.226562 M 21.105469 40.402344 C 21.003906 40.929688 20.546875 41.292969 20.03125 41.292969 C 19.960938 41.292969 19.890625 41.289062 19.820312 41.273438 C 18.988281 41.109375 18.167969 40.921875 17.390625 40.71875 C 16.808594 40.566406 16.457031 39.964844 16.609375 39.378906 C 16.761719 38.789062 17.355469 38.4375 17.941406 38.589844 C 18.675781 38.78125 19.449219 38.957031 20.242188 39.113281 C 20.832031 39.230469 21.222656 39.808594 21.105469 40.402344 M 15.246094 38.945312 C 15.074219 39.378906 14.664062 39.644531 14.226562 39.644531 C 14.09375 39.644531 13.957031 39.621094 13.824219 39.566406 C 13.144531 39.296875 12.5 39.007812 11.910156 38.707031 C 11.371094 38.429688 11.15625 37.765625 11.433594 37.226562 C 11.707031 36.683594 12.363281 36.46875 12.902344 36.742188 C 13.433594 37.015625 14.011719 37.273438 14.628906 37.519531 C 15.191406 37.742188 15.464844 38.378906 15.246094 38.945312 M 29.988281 36.351562 C 23.335938 36.351562 17.066406 35.191406 12.332031 33.082031 C 10.03125 32.058594 8.203125 30.851562 6.898438 29.519531 L 6.898438 37.917969 C 7.523438 39.902344 9.738281 41.847656 13.183594 43.382812 C 17.65625 45.375 23.621094 46.46875 29.988281 46.46875 C 36.355469 46.46875 42.324219 45.375 46.792969 43.382812 C 50.242188 41.847656 52.453125 39.902344 53.078125 37.917969 L 53.078125 29.519531 C 51.773438 30.851562 49.945312 32.058594 47.644531 33.082031 C 42.910156 35.191406 36.640625 36.351562 29.988281 36.351562 M 48.542969 49.917969 C 48.820312 50.460938 48.605469 51.125 48.066406 51.398438 C 47.476562 51.699219 46.832031 51.992188 46.152344 52.261719 C 46.019531 52.3125 45.882812 52.335938 45.75 52.335938 C 45.3125 52.335938 44.902344 52.074219 44.730469 51.640625 C 44.511719 51.074219 44.785156 50.433594 45.347656 50.210938 C 45.964844 49.96875 46.546875 49.707031 47.074219 49.4375 C 47.613281 49.160156 48.269531 49.375 48.542969 49.917969 M 21.105469 53.097656 C 21.003906 53.621094 20.546875 53.988281 20.03125 53.988281 C 19.960938 53.988281 19.890625 53.980469 19.820312 53.964844 C 18.988281 53.804688 18.167969 53.617188 17.390625 53.414062 C 16.808594 53.261719 16.457031 52.660156 16.609375 52.070312 C 16.761719 51.484375 17.355469 51.128906 17.941406 51.28125 C 18.675781 51.472656 19.449219 51.648438 20.242188 51.804688 C 20.832031 51.921875 21.222656 52.5 21.105469 53.097656 M 15.246094 51.640625 C 15.074219 52.074219 14.664062 52.335938 14.226562 52.335938 C 14.09375 52.335938 13.957031 52.3125 13.824219 52.261719 C 13.144531 51.992188 12.5 51.699219 11.910156 51.398438 C 11.371094 51.121094 11.15625 50.460938 11.433594 49.917969 C 11.707031 49.375 12.363281 49.160156 12.902344 49.4375 C 13.433594 49.707031 14.011719 49.96875 14.628906 50.210938 C 15.191406 50.433594 15.464844 51.074219 15.246094 51.640625 M 29.988281 48.585938 C 23.335938 48.585938 17.066406 47.425781 12.332031 45.316406 C 10.03125 44.292969 8.203125 43.085938 6.898438 41.753906 L 6.898438 50.152344 C 7.523438 52.136719 9.738281 54.082031 13.183594 55.617188 C 17.65625 57.605469 23.621094 58.703125 29.988281 58.703125 C 36.355469 58.703125 42.324219 57.605469 46.792969 55.617188 C 50.242188 54.082031 52.453125 52.136719 53.078125 50.152344 L 53.078125 41.753906 C 51.773438 43.085938 49.945312 44.292969 47.644531 45.316406 C 42.910156 47.425781 36.640625 48.585938 29.988281 48.585938 " fill-opacity="1" fill-rule="evenodd"/></g></svg>