<svg xmlns="http://www.w3.org/2000/svg" xmlns:xlink="http://www.w3.org/1999/xlink" width="80" zoomAndPan="magnify" viewBox="0 0 60 60" height="80" preserveAspectRatio="xMidYMid meet" version="1.0"><defs><filter x="0%" y="0%" width="100%" height="100%" id="9109043b55"><feColorMatrix values="0 0 0 0 1 0 0 0 0 1 0 0 0 0 1 0 0 0 1 0" color-interpolation-filters="sRGB"/></filter><clipPath id="cb6a29792b"><path d="M 5.101562 0 L 54.601562 0 L 54.601562 60 L 5.101562 60 Z M 5.101562 0 " clip-rule="nonzero"/></clipPath><clipPath id="e1910d541f"><path d="M 23.554688 26.09375 L 36.304688 26.09375 L 36.304688 41.84375 L 23.554688 41.84375 Z M 23.554688 26.09375 " clip-rule="nonzero"/></clipPath><mask id="0c7e0049c8"><g filter="url(#9109043b55)"><rect x="-6" width="72" fill="#000000" y="-6" height="72" fill-opacity="0.91"/></g></mask><clipPath id="7b771e8c21"><path d="M 0.640625 0.625 L 25.390625 0.625 L 25.390625 32.679688 L 0.640625 32.679688 Z M 0.640625 0.625 " clip-rule="nonzero"/></clipPath><clipPath id="b3d5a577e3"><rect x="0" width="26" y="0" height="33"/></clipPath></defs><g clip-path="url(#cb6a29792b)"><path fill="#496bf5" d="M 29.988281 0.00390625 Z M 29.988281 0.00390625 Z M 29.988281 1.480469 Z M 29.988281 1.480469 Z M 29.988281 1.480469 Z M 29.988281 1.480469 Z M 29.988281 1.480469 L 29.988281 29.992188 Z M 29.988281 0.00390625 L 5.117188 7.277344 C 5.101562 17.3125 5.414062 24.761719 6.050781 29.621094 C 6.292969 31.582031 6.605469 33.460938 6.996094 35.257812 L 7.65625 37.871094 C 8.136719 39.566406 8.71875 41.148438 9.40625 42.617188 C 10.101562 44.078125 10.898438 45.425781 11.800781 46.65625 C 12.148438 47.382812 13.6875 49.023438 16.414062 51.582031 C 19.234375 54.039062 23.757812 56.839844 29.988281 59.980469 L 29.988281 1.480469 L 29.988281 58.5 C 24.066406 55.515625 19.761719 52.851562 17.085938 50.515625 C 14.492188 48.085938 13.03125 46.527344 12.699219 45.832031 C 11.839844 44.664062 11.082031 43.382812 10.421875 41.996094 C 9.769531 40.601562 9.214844 39.097656 8.757812 37.484375 L 8.132812 34.996094 C 7.761719 33.292969 7.460938 31.503906 7.234375 29.640625 C 6.625 25.019531 6.328125 17.9375 6.34375 8.398438 L 29.988281 1.480469 Z M 29.988281 0.00390625 L 29.988281 1.480469 L 53.636719 8.398438 C 53.648438 17.9375 53.351562 25.019531 52.746094 29.640625 C 52.519531 31.503906 52.21875 33.292969 51.847656 34.996094 L 51.222656 37.484375 C 50.765625 39.097656 50.210938 40.601562 49.558594 41.996094 C 48.898438 43.382812 48.140625 44.664062 47.28125 45.832031 C 46.949219 46.527344 45.488281 48.085938 42.894531 50.515625 C 40.214844 52.851562 35.914062 55.515625 29.988281 58.5 L 29.988281 29.992188 L 29.988281 59.980469 C 36.222656 56.839844 40.746094 54.039062 43.5625 51.582031 C 46.292969 49.023438 47.828125 47.382812 48.179688 46.65625 C 49.082031 45.425781 49.878906 44.078125 50.574219 42.617188 C 51.261719 41.148438 51.84375 39.566406 52.324219 37.871094 L 52.980469 35.257812 C 53.371094 33.460938 53.6875 31.582031 53.929688 29.621094 C 54.566406 24.761719 54.878906 17.3125 54.863281 7.277344 Z M 29.988281 0.00390625 " fill-opacity="1" fill-rule="nonzero"/></g><path fill="#496bf5" d="M 29.988281 2.960938 Z M 29.988281 2.960938 Z M 29.988281 2.960938 L 7.566406 9.515625 C 7.554688 18.5625 7.835938 25.277344 8.410156 29.660156 C 8.628906 31.425781 8.910156 33.121094 9.265625 34.738281 L 9.855469 37.09375 C 10.289062 38.625 10.816406 40.050781 11.4375 41.371094 C 12.0625 42.691406 12.78125 43.902344 13.59375 45.011719 C 13.910156 45.667969 15.296875 47.148438 17.753906 49.453125 C 20.292969 51.667969 24.371094 54.191406 29.988281 57.023438 Z M 29.988281 2.960938 L 29.988281 57.023438 C 35.609375 54.191406 39.6875 51.667969 42.226562 49.453125 C 44.683594 47.148438 46.070312 45.667969 46.386719 45.011719 C 47.199219 43.902344 47.917969 42.691406 48.542969 41.371094 C 49.164062 40.050781 49.691406 38.625 50.125 37.09375 L 50.714844 34.738281 C 51.066406 33.121094 51.351562 31.425781 51.570312 29.660156 C 52.144531 25.277344 52.425781 18.5625 52.410156 9.515625 Z M 29.988281 2.960938 " fill-opacity="1" fill-rule="nonzero"/><g clip-path="url(#e1910d541f)"><path fill="#314697" d="M 30.242188 14.820312 Z M 30.242188 14.820312 Z M 30.242188 15.6875 Z M 30.242188 15.6875 Z M 30.242188 15.6875 Z M 30.242188 15.6875 Z M 30.242188 15.6875 L 30.242188 32.429688 Z M 30.242188 14.820312 L 15.636719 19.09375 C 15.628906 24.984375 15.8125 29.355469 16.1875 32.210938 C 16.328125 33.363281 16.511719 34.46875 16.742188 35.519531 L 17.128906 37.054688 C 17.410156 38.050781 17.753906 38.980469 18.15625 39.84375 C 18.5625 40.699219 19.03125 41.492188 19.5625 42.214844 C 19.765625 42.640625 20.671875 43.605469 22.273438 45.105469 C 23.925781 46.550781 26.582031 48.195312 30.242188 50.039062 L 30.242188 15.6875 L 30.242188 49.171875 C 26.761719 47.417969 24.238281 45.851562 22.664062 44.480469 C 21.140625 43.054688 20.285156 42.136719 20.089844 41.730469 C 19.585938 41.042969 19.140625 40.292969 18.753906 39.476562 C 18.367188 38.660156 18.042969 37.773438 17.773438 36.828125 L 17.40625 35.367188 C 17.1875 34.367188 17.011719 33.316406 16.878906 32.222656 C 16.523438 29.507812 16.347656 25.351562 16.355469 19.75 L 30.242188 15.6875 Z M 30.242188 14.820312 L 30.242188 15.6875 L 44.128906 19.75 C 44.136719 25.351562 43.960938 29.507812 43.605469 32.222656 C 43.472656 33.316406 43.296875 34.367188 43.078125 35.367188 L 42.710938 36.828125 C 42.441406 37.773438 42.117188 38.660156 41.730469 39.476562 C 41.34375 40.292969 40.898438 41.042969 40.394531 41.730469 C 40.203125 42.136719 39.34375 43.054688 37.820312 44.480469 C 36.246094 45.851562 33.722656 47.417969 30.242188 49.171875 L 30.242188 32.429688 L 30.242188 50.039062 C 33.902344 48.195312 36.558594 46.550781 38.214844 45.105469 C 39.816406 43.605469 40.71875 42.640625 40.921875 42.214844 C 41.453125 41.492188 41.921875 40.699219 42.328125 39.84375 C 42.730469 38.980469 43.074219 38.050781 43.359375 37.054688 L 43.742188 35.519531 C 43.972656 34.46875 44.15625 33.363281 44.296875 32.210938 C 44.671875 29.355469 44.855469 24.984375 44.847656 19.09375 Z M 30.242188 14.820312 " fill-opacity="1" fill-rule="nonzero"/><path fill="#314697" d="M 30.242188 16.554688 Z M 30.242188 16.554688 Z M 30.242188 16.554688 L 17.078125 20.40625 C 17.070312 25.71875 17.234375 29.660156 17.570312 32.234375 C 17.699219 33.273438 17.867188 34.265625 18.074219 35.214844 L 18.421875 36.601562 C 18.675781 37.5 18.984375 38.335938 19.347656 39.113281 C 19.714844 39.886719 20.136719 40.597656 20.613281 41.25 C 20.800781 41.636719 21.613281 42.503906 23.058594 43.855469 C 24.546875 45.15625 26.945312 46.640625 30.242188 48.300781 L 30.242188 48.304688 Z M 30.242188 16.554688 L 30.242188 48.304688 C 33.542969 46.640625 35.9375 45.15625 37.425781 43.855469 C 38.871094 42.503906 39.683594 41.636719 39.871094 41.25 C 40.347656 40.597656 40.769531 39.886719 41.136719 39.113281 C 41.5 38.335938 41.808594 37.5 42.066406 36.601562 L 42.414062 35.214844 C 42.621094 34.265625 42.785156 33.273438 42.914062 32.234375 C 43.25 29.660156 43.414062 25.71875 43.410156 20.40625 Z M 30.242188 16.554688 " fill-opacity="1" fill-rule="nonzero"/></g><g mask="url(#0c7e0049c8)"><g transform="matrix(1, 0, 0, 1, 17, 11)"><g clip-path="url(#b3d5a577e3)"><g clip-path="url(#7b771e8c21)"><path fill="#ffffff" d="M 22.707031 12.945312 L 22.707031 10.332031 C 22.707031 4.980469 18.351562 0.625 13 0.625 C 7.648438 0.625 3.292969 4.976562 3.292969 10.332031 L 3.292969 12.945312 C 1.828125 12.984375 0.648438 14.179688 0.648438 15.65625 L 0.648438 29.792969 C 0.648438 30.15625 0.71875 30.5 0.855469 30.832031 C 0.992188 31.167969 1.191406 31.460938 1.445312 31.714844 C 1.699219 31.96875 1.992188 32.167969 2.324219 32.304688 C 2.65625 32.441406 3.003906 32.511719 3.363281 32.511719 L 22.632812 32.511719 C 22.992188 32.511719 23.339844 32.441406 23.671875 32.304688 C 24.003906 32.167969 24.300781 31.96875 24.554688 31.714844 C 24.808594 31.460938 25.003906 31.167969 25.144531 30.835938 C 25.28125 30.5 25.347656 30.15625 25.347656 29.792969 L 25.347656 15.65625 C 25.347656 14.179688 24.171875 12.984375 22.707031 12.945312 Z M 15.222656 20.769531 C 15.207031 20.855469 15.160156 21.046875 15.15625 21.0625 C 14.992188 21.636719 14.59375 22.109375 14.082031 22.394531 L 14.953125 26.113281 C 14.976562 26.191406 14.984375 26.269531 14.972656 26.351562 C 14.960938 26.429688 14.929688 26.503906 14.882812 26.574219 C 14.835938 26.640625 14.777344 26.691406 14.703125 26.730469 C 14.632812 26.769531 14.554688 26.789062 14.472656 26.789062 L 11.585938 26.789062 C 11.503906 26.789062 11.425781 26.769531 11.351562 26.730469 C 11.28125 26.691406 11.222656 26.640625 11.171875 26.574219 C 11.125 26.503906 11.097656 26.429688 11.085938 26.351562 C 11.074219 26.269531 11.078125 26.191406 11.105469 26.113281 L 11.917969 22.394531 C 11.402344 22.109375 11.007812 21.636719 10.839844 21.0625 C 10.835938 21.046875 10.789062 20.855469 10.777344 20.769531 C 10.761719 20.667969 10.753906 20.5625 10.753906 20.457031 C 10.753906 20.160156 10.8125 19.875 10.925781 19.597656 C 11.039062 19.324219 11.199219 19.082031 11.410156 18.871094 C 11.621094 18.660156 11.863281 18.496094 12.140625 18.382812 C 12.414062 18.269531 12.703125 18.210938 13 18.210938 C 13.296875 18.210938 13.582031 18.269531 13.859375 18.382812 C 14.132812 18.496094 14.375 18.660156 14.585938 18.871094 C 14.796875 19.082031 14.960938 19.324219 15.074219 19.597656 C 15.1875 19.875 15.242188 20.160156 15.242188 20.457031 C 15.242188 20.5625 15.234375 20.667969 15.222656 20.769531 Z M 19.390625 12.9375 L 6.605469 12.9375 L 6.605469 10.332031 C 6.605469 6.804688 9.472656 3.9375 13 3.9375 C 16.527344 3.9375 19.390625 6.804688 19.390625 10.332031 Z M 19.390625 12.9375 " fill-opacity="1" fill-rule="nonzero"/></g></g></g></g></svg>