<svg xmlns="http://www.w3.org/2000/svg" xmlns:xlink="http://www.w3.org/1999/xlink" width="80" zoomAndPan="magnify" viewBox="0 0 60 60" height="80" preserveAspectRatio="xMidYMid meet" version="1.0"><defs><clipPath id="7d571a78c9"><path d="M 16.273438 21.375 L 44.023438 21.375 L 44.023438 37.125 L 16.273438 37.125 Z M 16.273438 21.375 " clip-rule="nonzero"/></clipPath><clipPath id="5b6640b780"><path d="M 16.273438 23 L 44 23 L 44 36 L 16.273438 36 Z M 16.273438 23 " clip-rule="nonzero"/></clipPath></defs><path fill="#496bf5" d="M 33.53125 60 L 26.46875 60 C 26.117188 60 25.835938 59.753906 25.765625 59.4375 L 24.5 53.671875 C 21.898438 53.074219 19.402344 52.054688 17.117188 50.613281 L 12.160156 53.8125 C 11.878906 53.988281 11.527344 53.953125 11.28125 53.707031 L 6.292969 48.683594 C 6.046875 48.472656 6.011719 48.085938 6.1875 47.804688 L 9.351562 42.847656 C 7.945312 40.5625 6.890625 38.101562 6.292969 35.464844 L 0.5625 34.234375 C 0.210938 34.164062 0 33.847656 0 33.53125 L 0 26.46875 C 0 26.117188 0.210938 25.835938 0.5625 25.765625 L 6.292969 24.5 C 6.890625 21.898438 7.945312 19.402344 9.351562 17.117188 L 6.1875 12.160156 C 6.011719 11.878906 6.046875 11.527344 6.292969 11.28125 L 11.28125 6.292969 C 11.527344 6.046875 11.878906 6.011719 12.160156 6.1875 L 17.117188 9.351562 C 19.402344 7.945312 21.898438 6.890625 24.5 6.292969 L 25.765625 0.5625 C 25.835938 0.246094 26.117188 0 26.46875 0 L 33.53125 0 C 33.882812 0 34.164062 0.246094 34.234375 0.5625 L 35.464844 6.292969 C 38.101562 6.925781 40.597656 7.945312 42.882812 9.386719 L 47.839844 6.1875 C 48.121094 6.011719 48.472656 6.046875 48.71875 6.292969 L 53.707031 11.28125 C 53.953125 11.527344 53.988281 11.878906 53.8125 12.160156 L 50.613281 17.117188 C 52.054688 19.402344 53.074219 21.898438 53.707031 24.5 L 59.4375 25.765625 C 59.753906 25.835938 60 26.117188 60 26.46875 L 60 33.53125 C 60 33.882812 59.753906 34.164062 59.4375 34.234375 L 53.707031 35.5 C 53.074219 38.101562 52.054688 40.597656 50.613281 42.882812 L 53.8125 47.839844 C 53.988281 48.121094 53.953125 48.472656 53.707031 48.71875 L 48.71875 53.707031 C 48.472656 53.953125 48.121094 53.988281 47.839844 53.8125 L 42.882812 50.648438 C 40.597656 52.054688 38.101562 53.109375 35.464844 53.707031 L 34.234375 59.4375 C 34.164062 59.753906 33.847656 60 33.53125 60 Z M 29.984375 47.171875 C 20.527344 47.171875 12.828125 39.472656 12.828125 29.984375 C 12.828125 20.527344 20.527344 12.828125 29.984375 12.828125 C 39.472656 12.828125 47.171875 20.527344 47.171875 29.984375 C 47.171875 39.472656 39.472656 47.171875 29.984375 47.171875 Z M 29.984375 47.171875 " fill-opacity="1" fill-rule="evenodd"/><path fill="#496bf5" d="M 20.140625 29.984375 L 23.902344 33.742188 C 24.78125 34.621094 24.148438 36.132812 22.882812 36.132812 C 22.53125 36.132812 22.179688 35.992188 21.898438 35.710938 L 17.1875 31 C 16.625 30.4375 16.625 29.5625 17.1875 29 L 21.898438 24.253906 C 22.25 23.902344 22.742188 23.761719 23.234375 23.902344 C 24.289062 24.183594 24.675781 25.449219 23.902344 26.257812 Z M 39.824219 29.984375 L 36.097656 26.257812 C 35.746094 25.90625 35.570312 25.414062 35.710938 24.921875 C 35.992188 23.902344 37.292969 23.480469 38.066406 24.253906 L 42.8125 29 C 43.375 29.5625 43.375 30.4375 42.8125 31 L 38.066406 35.710938 C 37.820312 35.992188 37.46875 36.132812 37.082031 36.132812 C 35.851562 36.132812 35.21875 34.621094 36.097656 33.742188 Z M 39.824219 29.984375 " fill-opacity="1" fill-rule="evenodd"/><path fill="#496bf5" d="M 26.820312 36.871094 C 25.765625 36.871094 25.0625 35.710938 25.589844 34.761719 L 31.914062 23.796875 C 32.195312 23.375 32.617188 23.09375 33.144531 23.09375 C 34.199219 23.128906 34.9375 24.253906 34.375 25.203125 L 28.050781 36.167969 C 27.804688 36.589844 27.3125 36.871094 26.820312 36.871094 Z M 26.820312 36.871094 " fill-opacity="1" fill-rule="evenodd"/><g clip-path="url(#7d571a78c9)"><path fill="#314697" d="M 33.53125 59.851562 L 26.46875 59.851562 C 26.117188 59.851562 25.835938 59.605469 25.765625 59.289062 L 24.5 53.523438 C 21.898438 52.925781 19.402344 51.90625 17.117188 50.464844 L 12.160156 53.664062 C 11.878906 53.839844 11.527344 53.804688 11.28125 53.558594 L 6.292969 48.53125 C 6.046875 48.320312 6.011719 47.933594 6.1875 47.652344 L 9.351562 42.695312 C 7.945312 40.414062 6.890625 37.953125 6.292969 35.316406 L 0.5625 34.085938 C 0.210938 34.015625 0 33.699219 0 33.382812 L 0 26.316406 C 0 25.964844 0.210938 25.683594 0.5625 25.613281 L 6.292969 24.347656 C 6.890625 21.75 7.945312 19.253906 9.351562 16.96875 L 6.1875 12.011719 C 6.011719 11.730469 6.046875 11.378906 6.292969 11.132812 L 11.28125 6.140625 C 11.527344 5.894531 11.878906 5.859375 12.160156 6.035156 L 17.117188 9.199219 C 19.402344 7.792969 21.898438 6.738281 24.5 6.140625 L 25.765625 0.414062 C 25.835938 0.0976562 26.117188 -0.148438 26.46875 -0.148438 L 33.53125 -0.148438 C 33.882812 -0.148438 34.164062 0.0976562 34.234375 0.414062 L 35.464844 6.140625 C 38.101562 6.773438 40.597656 7.792969 42.882812 9.234375 L 47.839844 6.035156 C 48.121094 5.859375 48.472656 5.894531 48.71875 6.140625 L 53.707031 11.132812 C 53.953125 11.378906 53.988281 11.730469 53.8125 12.011719 L 50.613281 16.96875 C 52.054688 19.253906 53.074219 21.75 53.707031 24.347656 L 59.4375 25.613281 C 59.753906 25.683594 60 25.964844 60 26.316406 L 60 33.382812 C 60 33.734375 59.753906 34.015625 59.4375 34.085938 L 53.707031 35.351562 C 53.074219 37.953125 52.054688 40.449219 50.613281 42.730469 L 53.8125 47.6875 C 53.988281 47.96875 53.953125 48.320312 53.707031 48.566406 L 48.71875 53.558594 C 48.472656 53.804688 48.121094 53.839844 47.839844 53.664062 L 42.882812 50.5 C 40.597656 51.90625 38.101562 52.960938 35.464844 53.558594 L 34.234375 59.289062 C 34.164062 59.605469 33.847656 59.851562 33.53125 59.851562 Z M 29.984375 47.019531 C 20.527344 47.019531 12.828125 39.324219 12.828125 29.832031 C 12.828125 20.378906 20.527344 12.679688 29.984375 12.679688 C 39.472656 12.679688 47.171875 20.378906 47.171875 29.832031 C 47.171875 39.324219 39.472656 47.019531 29.984375 47.019531 Z M 29.984375 47.019531 " fill-opacity="1" fill-rule="evenodd"/></g><g clip-path="url(#5b6640b780)"><path fill="#314697" d="M 20.140625 29.832031 L 23.902344 33.59375 C 24.78125 34.472656 24.148438 35.984375 22.882812 35.984375 C 22.53125 35.984375 22.179688 35.84375 21.898438 35.5625 L 17.1875 30.851562 C 16.625 30.289062 16.625 29.410156 17.1875 28.847656 L 21.898438 24.101562 C 22.25 23.75 22.742188 23.609375 23.234375 23.75 C 24.289062 24.03125 24.675781 25.296875 23.902344 26.105469 Z M 39.824219 29.832031 L 36.097656 26.105469 C 35.746094 25.753906 35.570312 25.261719 35.710938 24.769531 C 35.992188 23.75 37.292969 23.328125 38.066406 24.101562 L 42.8125 28.847656 C 43.375 29.410156 43.375 30.289062 42.8125 30.851562 L 38.066406 35.5625 C 37.820312 35.84375 37.46875 35.984375 37.082031 35.984375 C 35.851562 35.984375 35.21875 34.472656 36.097656 33.59375 Z M 39.824219 29.832031 " fill-opacity="1" fill-rule="evenodd"/></g><path fill="#314697" d="M 26.820312 36.722656 C 25.765625 36.722656 25.0625 35.5625 25.589844 34.613281 L 31.914062 23.644531 C 32.195312 23.222656 32.617188 22.941406 33.144531 22.941406 C 34.199219 22.976562 34.9375 24.101562 34.375 25.050781 L 28.050781 36.019531 C 27.804688 36.441406 27.3125 36.722656 26.820312 36.722656 Z M 26.820312 36.722656 " fill-opacity="1" fill-rule="evenodd"/></svg>