<svg xmlns="http://www.w3.org/2000/svg" xmlns:xlink="http://www.w3.org/1999/xlink" width="80" zoomAndPan="magnify" viewBox="0 0 60 60" height="80" preserveAspectRatio="xMidYMid meet" version="1.0"><defs><clipPath id="87a16e5a0d"><path d="M 0.460938 4.328125 L 59.710938 4.328125 L 59.710938 26 L 0.460938 26 Z M 0.460938 4.328125 " clip-rule="nonzero"/></clipPath><clipPath id="fd331d5c5f"><path d="M 0.460938 28 L 13 28 L 13 46 L 0.460938 46 Z M 0.460938 28 " clip-rule="nonzero"/></clipPath><clipPath id="6741eba4c4"><path d="M 26 28 L 33 28 L 33 55.328125 L 26 55.328125 Z M 26 28 " clip-rule="nonzero"/></clipPath><clipPath id="2b093e2773"><path d="M 47 28 L 59.710938 28 L 59.710938 46 L 47 46 Z M 47 28 " clip-rule="nonzero"/></clipPath></defs><path fill="#496bf5" d="M 31.320312 52.96875 C 31.320312 51.996094 30.527344 51.199219 29.554688 51.199219 C 28.578125 51.199219 27.785156 51.992188 27.785156 52.96875 C 27.785156 53.941406 28.578125 54.738281 29.554688 54.738281 C 30.527344 54.738281 31.320312 53.941406 31.320312 52.96875 Z M 31.320312 52.96875 " fill-opacity="1" fill-rule="evenodd"/><path fill="#496bf5" d="M 43.625 48.550781 C 44.601562 48.550781 45.394531 49.34375 45.394531 50.320312 C 45.394531 51.296875 44.601562 52.089844 43.625 52.089844 C 42.648438 52.089844 41.855469 51.296875 41.855469 50.320312 C 41.855469 49.34375 42.648438 48.550781 43.625 48.550781 Z M 43.625 48.550781 " fill-opacity="1" fill-rule="evenodd"/><path fill="#496bf5" d="M 55.085938 42.382812 C 55.085938 41.40625 55.878906 40.613281 56.855469 40.613281 C 57.832031 40.613281 58.625 41.40625 58.625 42.382812 C 58.625 43.359375 57.832031 44.152344 56.855469 44.152344 C 55.878906 44.152344 55.085938 43.359375 55.085938 42.382812 Z M 55.085938 42.382812 " fill-opacity="1" fill-rule="evenodd"/><path fill="#496bf5" d="M 4.929688 42.382812 C 4.929688 43.359375 4.136719 44.152344 3.160156 44.152344 C 2.183594 44.152344 1.390625 43.359375 1.390625 42.382812 C 1.390625 41.40625 2.183594 40.613281 3.160156 40.613281 C 4.136719 40.613281 4.925781 41.40625 4.929688 42.382812 Z M 4.929688 42.382812 " fill-opacity="1" fill-rule="evenodd"/><path fill="#496bf5" d="M 18.15625 50.320312 C 18.15625 51.296875 17.367188 52.089844 16.390625 52.089844 C 15.410156 52.089844 14.621094 51.296875 14.621094 50.320312 C 14.621094 49.34375 15.410156 48.550781 16.390625 48.550781 C 17.367188 48.550781 18.15625 49.34375 18.15625 50.320312 Z M 18.15625 50.320312 " fill-opacity="1" fill-rule="evenodd"/><path fill="#496bf5" d="M 33.28125 14.34375 L 38.464844 14.34375 L 38.464844 20 L 33.28125 20 Z M 33.28125 14.34375 " fill-opacity="1" fill-rule="evenodd"/><path fill="#496bf5" d="M 14.964844 14.34375 L 20.152344 14.34375 L 20.152344 20 L 14.964844 20 Z M 14.964844 14.34375 " fill-opacity="1" fill-rule="evenodd"/><path fill="#314697" d="M 5.808594 14.34375 L 10.992188 14.34375 L 10.992188 20 L 5.808594 20 Z M 5.808594 14.34375 " fill-opacity="1" fill-rule="evenodd"/><path fill="#314697" d="M 24.125 14.34375 L 29.308594 14.34375 L 29.308594 20 L 24.125 20 Z M 24.125 14.34375 " fill-opacity="1" fill-rule="evenodd"/><path fill="#314697" d="M 42.4375 14.34375 L 47.621094 14.34375 L 47.621094 20 L 42.4375 20 Z M 42.4375 14.34375 " fill-opacity="1" fill-rule="evenodd"/><path fill="#496bf5" d="M 55.238281 5.253906 L 58.625 10.164062 L 1.394531 10.164062 L 6.046875 5.253906 Z M 55.238281 5.253906 " fill-opacity="1" fill-rule="evenodd"/><path fill="#496bf5" d="M 58.625 10.164062 L 58.625 24.183594 L 1.394531 24.183594 L 1.394531 10.164062 Z M 47.621094 20 L 47.621094 14.34375 L 42.4375 14.34375 L 42.4375 20 Z M 38.464844 20 L 38.464844 14.34375 L 33.28125 14.34375 L 33.28125 20 Z M 29.308594 20 L 29.308594 14.34375 L 24.125 14.34375 L 24.125 20 Z M 20.152344 20 L 20.152344 14.34375 L 14.964844 14.34375 L 14.964844 20 Z M 10.992188 20 L 10.992188 14.34375 L 5.808594 14.34375 L 5.808594 20 Z M 10.992188 20 " fill-opacity="1" fill-rule="evenodd"/><path fill="#314697" d="M 5.808594 20.925781 L 10.992188 20.925781 C 11.503906 20.925781 11.917969 20.511719 11.917969 20.003906 L 11.917969 14.34375 C 11.917969 13.835938 11.503906 13.421875 10.992188 13.421875 L 5.808594 13.421875 C 5.296875 13.421875 4.886719 13.835938 4.886719 14.34375 L 4.886719 20 C 4.886719 20.511719 5.296875 20.925781 5.808594 20.925781 Z M 6.730469 15.269531 L 10.070312 15.269531 L 10.070312 19.078125 L 6.730469 19.078125 Z M 6.730469 15.269531 " fill-opacity="1" fill-rule="evenodd"/><path fill="#314697" d="M 14.964844 20.925781 L 20.152344 20.925781 C 20.660156 20.925781 21.074219 20.511719 21.074219 20.003906 L 21.074219 14.34375 C 21.074219 13.835938 20.660156 13.421875 20.152344 13.421875 L 14.964844 13.421875 C 14.457031 13.421875 14.042969 13.835938 14.042969 14.34375 L 14.042969 20 C 14.042969 20.511719 14.457031 20.925781 14.964844 20.925781 Z M 15.890625 15.269531 L 19.226562 15.269531 L 19.226562 19.078125 L 15.890625 19.078125 Z M 15.890625 15.269531 " fill-opacity="1" fill-rule="evenodd"/><path fill="#314697" d="M 24.125 20.925781 L 29.308594 20.925781 C 29.816406 20.925781 30.230469 20.511719 30.230469 20.003906 L 30.230469 14.34375 C 30.230469 13.835938 29.816406 13.421875 29.308594 13.421875 L 24.125 13.421875 C 23.613281 13.421875 23.199219 13.835938 23.199219 14.34375 L 23.199219 20 C 23.199219 20.511719 23.613281 20.925781 24.125 20.925781 Z M 25.046875 15.269531 L 28.386719 15.269531 L 28.386719 19.078125 L 25.046875 19.078125 Z M 25.046875 15.269531 " fill-opacity="1" fill-rule="evenodd"/><path fill="#314697" d="M 33.28125 20.925781 L 38.464844 20.925781 C 38.976562 20.925781 39.390625 20.511719 39.390625 20.003906 L 39.390625 14.34375 C 39.390625 13.835938 38.976562 13.421875 38.464844 13.421875 L 33.28125 13.421875 C 32.769531 13.421875 32.359375 13.835938 32.359375 14.34375 L 32.359375 20 C 32.359375 20.511719 32.769531 20.925781 33.28125 20.925781 Z M 34.203125 15.269531 L 37.542969 15.269531 L 37.542969 19.078125 L 34.203125 19.078125 Z M 34.203125 15.269531 " fill-opacity="1" fill-rule="evenodd"/><path fill="#314697" d="M 42.4375 20.925781 L 47.621094 20.925781 C 48.132812 20.925781 48.546875 20.511719 48.546875 20.003906 L 48.546875 14.34375 C 48.546875 13.835938 48.132812 13.421875 47.621094 13.421875 L 42.4375 13.421875 C 41.929688 13.421875 41.515625 13.835938 41.515625 14.34375 L 41.515625 20 C 41.515625 20.511719 41.929688 20.925781 42.4375 20.925781 Z M 43.359375 15.269531 L 46.699219 15.269531 L 46.699219 19.078125 L 43.359375 19.078125 Z M 43.359375 15.269531 " fill-opacity="1" fill-rule="evenodd"/><path fill="#314697" d="M 51.246094 16.691406 L 51.601562 16.691406 C 52.109375 16.691406 52.523438 16.277344 52.523438 15.769531 C 52.523438 15.257812 52.109375 14.84375 51.601562 14.84375 L 51.246094 14.84375 C 50.738281 14.84375 50.324219 15.257812 50.324219 15.769531 C 50.324219 16.277344 50.738281 16.691406 51.246094 16.691406 Z M 51.246094 16.691406 " fill-opacity="1" fill-rule="evenodd"/><path fill="#314697" d="M 54.515625 16.691406 L 54.871094 16.691406 C 55.378906 16.691406 55.792969 16.277344 55.792969 15.769531 C 55.792969 15.257812 55.378906 14.84375 54.871094 14.84375 L 54.515625 14.84375 C 54.007812 14.84375 53.59375 15.257812 53.59375 15.769531 C 53.59375 16.277344 54.007812 16.691406 54.515625 16.691406 Z M 54.515625 16.691406 " fill-opacity="1" fill-rule="evenodd"/><path fill="#314697" d="M 51.246094 19.5 L 51.601562 19.5 C 52.109375 19.5 52.523438 19.085938 52.523438 18.578125 C 52.523438 18.066406 52.109375 17.652344 51.601562 17.652344 L 51.246094 17.652344 C 50.738281 17.652344 50.324219 18.066406 50.324219 18.578125 C 50.324219 19.085938 50.738281 19.5 51.246094 19.5 Z M 51.246094 19.5 " fill-opacity="1" fill-rule="evenodd"/><path fill="#314697" d="M 54.515625 19.5 L 54.871094 19.5 C 55.378906 19.5 55.792969 19.085938 55.792969 18.578125 C 55.792969 18.066406 55.378906 17.652344 54.871094 17.652344 L 54.515625 17.652344 C 54.007812 17.652344 53.59375 18.066406 53.59375 18.578125 C 53.59375 19.085938 54.007812 19.5 54.515625 19.5 Z M 54.515625 19.5 " fill-opacity="1" fill-rule="evenodd"/><g clip-path="url(#87a16e5a0d)"><path fill="#314697" d="M 59.546875 10.121094 C 59.539062 9.949219 59.480469 9.78125 59.382812 9.640625 L 56 4.730469 C 55.828125 4.480469 55.542969 4.332031 55.238281 4.332031 L 6.046875 4.332031 C 5.792969 4.332031 5.550781 4.433594 5.378906 4.617188 L 0.722656 9.53125 C 0.5625 9.699219 0.46875 9.929688 0.472656 10.164062 L 0.472656 24.183594 C 0.472656 24.691406 0.882812 25.105469 1.394531 25.105469 L 58.625 25.105469 C 59.132812 25.105469 59.546875 24.691406 59.546875 24.183594 L 59.546875 10.164062 C 59.546875 10.148438 59.546875 10.132812 59.546875 10.121094 Z M 6.445312 6.175781 L 54.753906 6.175781 L 56.867188 9.242188 L 3.539062 9.242188 Z M 57.699219 23.257812 L 2.316406 23.257812 L 2.316406 11.089844 L 57.699219 11.089844 Z M 57.699219 23.257812 " fill-opacity="1" fill-rule="evenodd"/></g><g clip-path="url(#fd331d5c5f)"><path fill="#314697" d="M 11.753906 28.390625 C 11.242188 28.390625 10.832031 28.804688 10.832031 29.316406 L 10.832031 41.457031 L 5.6875 41.457031 C 5.308594 40.425781 4.320312 39.691406 3.160156 39.691406 C 1.675781 39.691406 0.464844 40.898438 0.464844 42.382812 C 0.464844 43.867188 1.675781 45.074219 3.160156 45.074219 C 4.320312 45.074219 5.308594 44.335938 5.6875 43.304688 L 11.753906 43.304688 C 12.261719 43.304688 12.675781 42.890625 12.675781 42.382812 L 12.675781 29.316406 C 12.675781 28.804688 12.261719 28.390625 11.753906 28.390625 Z M 3.160156 43.226562 C 2.691406 43.226562 2.3125 42.847656 2.3125 42.382812 C 2.3125 41.914062 2.691406 41.535156 3.160156 41.535156 C 3.625 41.535156 4.003906 41.914062 4.003906 42.382812 C 4.003906 42.847656 3.625 43.226562 3.160156 43.226562 Z M 3.160156 43.226562 " fill-opacity="1" fill-rule="evenodd"/></g><path fill="#314697" d="M 21.269531 28.390625 C 20.761719 28.390625 20.347656 28.804688 20.347656 29.316406 L 20.347656 49.398438 L 18.917969 49.398438 C 18.539062 48.367188 17.550781 47.628906 16.386719 47.628906 C 14.902344 47.628906 13.695312 48.835938 13.695312 50.320312 C 13.695312 51.804688 14.902344 53.011719 16.386719 53.011719 C 17.546875 53.011719 18.539062 52.273438 18.917969 51.242188 L 21.269531 51.242188 C 21.78125 51.242188 22.195312 50.832031 22.195312 50.320312 L 22.195312 29.316406 C 22.195312 28.804688 21.78125 28.390625 21.269531 28.390625 Z M 16.390625 51.164062 C 15.921875 51.164062 15.542969 50.785156 15.542969 50.320312 C 15.542969 49.855469 15.921875 49.472656 16.390625 49.472656 C 16.855469 49.472656 17.234375 49.851562 17.234375 50.320312 C 17.234375 50.789062 16.855469 51.164062 16.390625 51.164062 Z M 16.390625 51.164062 " fill-opacity="1" fill-rule="evenodd"/><g clip-path="url(#6741eba4c4)"><path fill="#314697" d="M 30.476562 50.4375 L 30.476562 29.316406 C 30.476562 28.804688 30.0625 28.390625 29.554688 28.390625 C 29.042969 28.390625 28.628906 28.804688 28.628906 29.316406 L 28.628906 50.441406 C 27.597656 50.816406 26.859375 51.808594 26.859375 52.96875 C 26.859375 54.453125 28.070312 55.660156 29.554688 55.660156 C 31.039062 55.660156 32.246094 54.453125 32.246094 52.96875 C 32.246094 51.808594 31.507812 50.816406 30.476562 50.4375 Z M 29.554688 53.8125 C 29.085938 53.8125 28.707031 53.433594 28.707031 52.96875 C 28.707031 52.503906 29.085938 52.125 29.550781 52.121094 C 29.550781 52.121094 29.550781 52.121094 29.554688 52.121094 C 30.019531 52.125 30.398438 52.503906 30.398438 52.96875 C 30.398438 53.433594 30.019531 53.8125 29.554688 53.8125 Z M 29.554688 53.8125 " fill-opacity="1" fill-rule="evenodd"/></g><path fill="#314697" d="M 43.625 47.628906 C 42.464844 47.628906 41.472656 48.367188 41.097656 49.398438 L 39.664062 49.398438 L 39.664062 29.316406 C 39.664062 28.804688 39.253906 28.390625 38.742188 28.390625 C 38.234375 28.390625 37.820312 28.804688 37.820312 29.316406 L 37.820312 50.320312 C 37.820312 50.832031 38.234375 51.242188 38.742188 51.242188 L 41.097656 51.242188 C 41.472656 52.273438 42.464844 53.011719 43.625 53.011719 C 45.109375 53.011719 46.316406 51.804688 46.316406 50.320312 C 46.316406 48.835938 45.109375 47.628906 43.625 47.628906 Z M 43.625 51.164062 C 43.160156 51.164062 42.78125 50.785156 42.78125 50.320312 C 42.78125 49.855469 43.160156 49.472656 43.625 49.472656 C 44.089844 49.472656 44.472656 49.855469 44.472656 50.320312 C 44.472656 50.785156 44.089844 51.164062 43.625 51.164062 Z M 43.625 51.164062 " fill-opacity="1" fill-rule="evenodd"/><g clip-path="url(#2b093e2773)"><path fill="#314697" d="M 56.855469 39.691406 C 55.695312 39.691406 54.703125 40.425781 54.328125 41.457031 L 49.183594 41.457031 L 49.183594 29.316406 C 49.183594 28.804688 48.769531 28.390625 48.261719 28.390625 C 47.75 28.390625 47.335938 28.804688 47.335938 29.316406 L 47.335938 42.382812 C 47.335938 42.890625 47.75 43.304688 48.261719 43.304688 L 54.328125 43.304688 C 54.703125 44.335938 55.695312 45.074219 56.855469 45.074219 C 58.339844 45.074219 59.546875 43.867188 59.546875 42.382812 C 59.546875 40.898438 58.339844 39.691406 56.855469 39.691406 Z M 56.855469 43.226562 C 56.390625 43.226562 56.011719 42.847656 56.007812 42.382812 C 56.007812 42.382812 56.007812 42.378906 56.007812 42.378906 C 56.011719 41.914062 56.390625 41.535156 56.855469 41.535156 C 57.320312 41.535156 57.699219 41.914062 57.699219 42.382812 C 57.699219 42.847656 57.320312 43.226562 56.855469 43.226562 Z M 56.855469 43.226562 " fill-opacity="1" fill-rule="evenodd"/></g></svg>